<svg width="77" height="19" viewBox="0 0 77 19" fill="none" xmlns="http://www.w3.org/2000/svg">
<path d="M9.49996 7.125C12.9978 7.125 15.8333 6.06168 15.8333 4.75C15.8333 3.43832 12.9978 2.375 9.49996 2.375C6.00216 2.375 3.16663 3.43832 3.16663 4.75C3.16663 6.06168 6.00216 7.125 9.49996 7.125Z" stroke="#ED4D28" stroke-width="2.75" stroke-linecap="round" stroke-linejoin="round"/>
<path d="M3.16663 4.75V11.0833M7.13208 11.7032C7.86358 11.814 8.66238 11.875 9.49996 11.875C12.9975 11.875 15.8333 10.8118 15.8333 9.5V4.75" stroke="#ED4D28" stroke-width="2.75" stroke-linecap="round" stroke-linejoin="round"/>
<path d="M8.90787 16.6147C9.10262 16.6218 9.30054 16.625 9.50004 16.625C12.9976 16.625 15.8334 15.5618 15.8334 14.25V9.5M1.58337 15.0417H7.12504M4.75004 12.6667L7.12504 15.0417L4.75004 17.4167" stroke="#ED4D28" stroke-width="2.75" stroke-linecap="round" stroke-linejoin="round"/>
<path d="M29.516 9.812C29.516 8.996 29.7 8.264 30.068 7.616C30.436 6.96 30.936 6.448 31.568 6.08C32.208 5.712 32.916 5.528 33.692 5.528C34.604 5.528 35.4 5.748 36.08 6.188C36.76 6.628 37.256 7.252 37.568 8.06H36.26C36.028 7.556 35.692 7.168 35.252 6.896C34.82 6.624 34.3 6.488 33.692 6.488C33.108 6.488 32.584 6.624 32.12 6.896C31.656 7.168 31.292 7.556 31.028 8.06C30.764 8.556 30.632 9.14 30.632 9.812C30.632 10.476 30.764 11.06 31.028 11.564C31.292 12.06 31.656 12.444 32.12 12.716C32.584 12.988 33.108 13.124 33.692 13.124C34.3 13.124 34.82 12.992 35.252 12.728C35.692 12.456 36.028 12.068 36.26 11.564H37.568C37.256 12.364 36.76 12.984 36.08 13.424C35.4 13.856 34.604 14.072 33.692 14.072C32.916 14.072 32.208 13.892 31.568 13.532C30.936 13.164 30.436 12.656 30.068 12.008C29.7 11.36 29.516 10.628 29.516 9.812ZM41.8455 14.084C41.2935 14.084 40.7975 13.988 40.3575 13.796C39.9255 13.596 39.5855 13.324 39.3375 12.98C39.0895 12.628 38.9615 12.224 38.9535 11.768H40.1175C40.1575 12.16 40.3175 12.492 40.5975 12.764C40.8855 13.028 41.3015 13.16 41.8455 13.16C42.3655 13.16 42.7735 13.032 43.0695 12.776C43.3735 12.512 43.5255 12.176 43.5255 11.768C43.5255 11.448 43.4375 11.188 43.2615 10.988C43.0855 10.788 42.8655 10.636 42.6015 10.532C42.3375 10.428 41.9815 10.316 41.5335 10.196C40.9815 10.052 40.5375 9.908 40.2015 9.764C39.8735 9.62 39.5895 9.396 39.3495 9.092C39.1175 8.78 39.0015 8.364 39.0015 7.844C39.0015 7.388 39.1175 6.984 39.3495 6.632C39.5815 6.28 39.9055 6.008 40.3215 5.816C40.7455 5.624 41.2295 5.528 41.7735 5.528C42.5575 5.528 43.1975 5.724 43.6935 6.116C44.1975 6.508 44.4815 7.028 44.5455 7.676H43.3455C43.3055 7.356 43.1375 7.076 42.8415 6.836C42.5455 6.588 42.1535 6.464 41.6655 6.464C41.2095 6.464 40.8375 6.584 40.5495 6.824C40.2615 7.056 40.1175 7.384 40.1175 7.808C40.1175 8.112 40.2015 8.36 40.3695 8.552C40.5455 8.744 40.7575 8.892 41.0055 8.996C41.2615 9.092 41.6175 9.204 42.0735 9.332C42.6255 9.484 43.0695 9.636 43.4055 9.788C43.7415 9.932 44.0295 10.16 44.2695 10.472C44.5095 10.776 44.6295 11.192 44.6295 11.72C44.6295 12.128 44.5215 12.512 44.3055 12.872C44.0895 13.232 43.7695 13.524 43.3455 13.748C42.9215 13.972 42.4215 14.084 41.8455 14.084ZM53.1485 5.636L49.9925 14H48.7325L45.5765 5.636H46.7405L49.3685 12.848L51.9965 5.636H53.1485ZM62.2731 5.636V6.524H58.6371V9.344H61.5891V10.232H58.6371V14H57.5451V5.636H62.2731ZM64.156 6.356C63.948 6.356 63.772 6.284 63.628 6.14C63.484 5.996 63.412 5.82 63.412 5.612C63.412 5.404 63.484 5.228 63.628 5.084C63.772 4.94 63.948 4.868 64.156 4.868C64.356 4.868 64.524 4.94 64.66 5.084C64.804 5.228 64.876 5.404 64.876 5.612C64.876 5.82 64.804 5.996 64.66 6.14C64.524 6.284 64.356 6.356 64.156 6.356ZM64.684 7.424V14H63.592V7.424H64.684ZM67.6371 5.12V14H66.5451V5.12H67.6371ZM75.4982 10.46C75.4982 10.668 75.4862 10.888 75.4622 11.12H70.2062C70.2462 11.768 70.4662 12.276 70.8662 12.644C71.2742 13.004 71.7662 13.184 72.3422 13.184C72.8142 13.184 73.2062 13.076 73.5182 12.86C73.8382 12.636 74.0622 12.34 74.1902 11.972H75.3662C75.1902 12.604 74.8382 13.12 74.3102 13.52C73.7822 13.912 73.1262 14.108 72.3422 14.108C71.7182 14.108 71.1582 13.968 70.6622 13.688C70.1742 13.408 69.7902 13.012 69.5102 12.5C69.2302 11.98 69.0902 11.38 69.0902 10.7C69.0902 10.02 69.2262 9.424 69.4982 8.912C69.7702 8.4 70.1502 8.008 70.6382 7.736C71.1342 7.456 71.7022 7.316 72.3422 7.316C72.9662 7.316 73.5182 7.452 73.9982 7.724C74.4782 7.996 74.8462 8.372 75.1022 8.852C75.3662 9.324 75.4982 9.86 75.4982 10.46ZM74.3702 10.232C74.3702 9.816 74.2782 9.46 74.0942 9.164C73.9102 8.86 73.6582 8.632 73.3382 8.48C73.0262 8.32 72.6782 8.24 72.2942 8.24C71.7422 8.24 71.2702 8.416 70.8782 8.768C70.4942 9.12 70.2742 9.608 70.2182 10.232H74.3702Z" fill="#424242"/>
</svg>
