<svg width="109" height="20" viewBox="0 0 109 20" fill="none" xmlns="http://www.w3.org/2000/svg">
<path d="M12.5202 18.75H5.90666C5.68747 18.75 5.47726 18.6622 5.32226 18.506C5.16727 18.3497 5.0802 18.1378 5.0802 17.9169V14.375L12.5202 10L16.2402 8.4175L19.9602 10V14.375L12.5202 18.75Z" fill="#21A366"/>
<path d="M5.0802 14.375H12.5202V10H5.0802V14.375Z" fill="#107C41"/>
<path d="M19.1338 18.75H12.5203V14.375H19.9603V17.9169C19.9603 18.1378 19.8732 18.3497 19.7182 18.506C19.5632 18.6622 19.353 18.75 19.1338 18.75V18.75Z" fill="#33C481"/>
<path d="M12.5202 10H5.0802V2.08313C5.0802 1.86217 5.16727 1.65026 5.32226 1.49402C5.47726 1.33778 5.68747 1.25 5.90666 1.25H19.1337C19.3529 1.25 19.5631 1.33778 19.7181 1.49402C19.8731 1.65026 19.9602 1.86217 19.9602 2.08313V5.625L12.5202 10Z" fill="#185C37"/>
<path d="M12.5203 10H19.9603V5.625H12.5203V10Z" fill="#107C41"/>
<path opacity="0.1" d="M10.4537 15.625H5.0802V3.75H10.4537C10.6727 3.75066 10.8826 3.83865 11.0374 3.99475C11.1923 4.15084 11.2795 4.36237 11.2802 4.58313V14.7919C11.2795 15.0126 11.1923 15.2242 11.0374 15.3803C10.8826 15.5364 10.6727 15.6243 10.4537 15.625V15.625Z" fill="black"/>
<path opacity="0.2" d="M9.83374 15H5.0802V3.125H9.83374C10.0527 3.12566 10.2626 3.21365 10.4174 3.36975C10.5723 3.52584 10.6595 3.73737 10.6602 3.95813V14.1669C10.6595 14.3876 10.5723 14.5992 10.4174 14.7553C10.2626 14.9114 10.0527 14.9993 9.83374 15V15Z" fill="black"/>
<path opacity="0.2" d="M9.83374 15H5.0802V4.375H9.83374C10.0527 4.37566 10.2626 4.46365 10.4174 4.61975C10.5723 4.77584 10.6595 4.98737 10.6602 5.20813V14.1669C10.6595 14.3876 10.5723 14.5992 10.4174 14.7553C10.2626 14.9114 10.0527 14.9993 9.83374 15V15Z" fill="black"/>
<path opacity="0.2" d="M9.21374 15H5.0802V4.375H9.21374C9.43273 4.37566 9.64256 4.46365 9.79741 4.61975C9.95226 4.77584 10.0395 4.98737 10.0402 5.20813V14.1669C10.0395 14.3876 9.95226 14.5992 9.79741 14.7553C9.64256 14.9114 9.43273 14.9993 9.21374 15V15Z" fill="black"/>
<path d="M0.946699 15H9.21378C9.43297 15 9.64318 14.9122 9.79817 14.756C9.95317 14.5997 10.0402 14.3878 10.0402 14.1669V5.83313C10.0402 5.61217 9.95317 5.40026 9.79817 5.24402C9.64318 5.08778 9.43297 5 9.21378 5H0.946699C0.727508 5 0.517295 5.08778 0.362304 5.24402C0.207312 5.40026 0.120239 5.61217 0.120239 5.83313L0.120239 14.1669C0.120239 14.3878 0.207312 14.5997 0.362304 14.756C0.517295 14.9122 0.727508 15 0.946699 15V15Z" fill="#107C41"/>
<path d="M2.31067 6.875L4.31699 10.0087L2.47931 13.125H3.95801L4.96117 11.1331C5.05334 10.9444 5.11679 10.8035 5.15151 10.7106H5.16453C5.23066 10.8615 5.2999 11.0081 5.37223 11.1506L6.44421 13.125H7.80139L5.91659 10.0262L7.84913 6.875H6.40453L5.24575 9.0625C5.19116 9.15568 5.14489 9.25356 5.10749 9.355H5.09013C5.05631 9.2558 5.01138 9.16081 4.95621 9.07187L3.76395 6.875H2.31067Z" fill="white"/>
<path d="M36.624 6.388V14H35.623V8.324L33.093 14H32.389L29.848 8.313V14H28.847V6.388H29.925L32.741 12.68L35.557 6.388H36.624ZM38.8386 6.993C38.6479 6.993 38.4866 6.927 38.3546 6.795C38.2226 6.663 38.1566 6.50167 38.1566 6.311C38.1566 6.12033 38.2226 5.959 38.3546 5.827C38.4866 5.695 38.6479 5.629 38.8386 5.629C39.0219 5.629 39.1759 5.695 39.3006 5.827C39.4326 5.959 39.4986 6.12033 39.4986 6.311C39.4986 6.50167 39.4326 6.663 39.3006 6.795C39.1759 6.927 39.0219 6.993 38.8386 6.993ZM39.3226 7.972V14H38.3216V7.972H39.3226ZM40.6546 10.975C40.6546 10.3517 40.7793 9.809 41.0286 9.347C41.278 8.87767 41.6226 8.51467 42.0626 8.258C42.51 8.00133 43.0196 7.873 43.5916 7.873C44.3323 7.873 44.941 8.05267 45.4176 8.412C45.9016 8.77133 46.2206 9.27 46.3746 9.908H45.2966C45.194 9.54133 44.9923 9.25167 44.6916 9.039C44.3983 8.82633 44.0316 8.72 43.5916 8.72C43.0196 8.72 42.5576 8.918 42.2056 9.314C41.8536 9.70267 41.6776 10.2563 41.6776 10.975C41.6776 11.701 41.8536 12.262 42.2056 12.658C42.5576 13.054 43.0196 13.252 43.5916 13.252C44.0316 13.252 44.3983 13.1493 44.6916 12.944C44.985 12.7387 45.1866 12.4453 45.2966 12.064H46.3746C46.2133 12.68 45.8906 13.175 45.4066 13.549C44.9226 13.9157 44.3176 14.099 43.5916 14.099C43.0196 14.099 42.51 13.9707 42.0626 13.714C41.6226 13.4573 41.278 13.0943 41.0286 12.625C40.7793 12.1557 40.6546 11.6057 40.6546 10.975ZM48.7113 8.951C48.8873 8.60633 49.1366 8.33867 49.4593 8.148C49.7893 7.95733 50.1889 7.862 50.6583 7.862V8.896H50.3943C49.2723 8.896 48.7113 9.50467 48.7113 10.722V14H47.7103V7.972H48.7113V8.951ZM54.4428 14.099C53.8781 14.099 53.3648 13.9707 52.9028 13.714C52.4481 13.4573 52.0888 13.0943 51.8248 12.625C51.5681 12.1483 51.4398 11.5983 51.4398 10.975C51.4398 10.359 51.5718 9.81633 51.8358 9.347C52.1071 8.87033 52.4738 8.50733 52.9358 8.258C53.3978 8.00133 53.9148 7.873 54.4868 7.873C55.0588 7.873 55.5758 8.00133 56.0378 8.258C56.4998 8.50733 56.8628 8.86667 57.1268 9.336C57.3981 9.80533 57.5338 10.3517 57.5338 10.975C57.5338 11.5983 57.3945 12.1483 57.1158 12.625C56.8445 13.0943 56.4741 13.4573 56.0048 13.714C55.5355 13.9707 55.0148 14.099 54.4428 14.099ZM54.4428 13.219C54.8021 13.219 55.1395 13.1347 55.4548 12.966C55.7701 12.7973 56.0231 12.5443 56.2138 12.207C56.4118 11.8697 56.5108 11.459 56.5108 10.975C56.5108 10.491 56.4155 10.0803 56.2248 9.743C56.0341 9.40567 55.7848 9.15633 55.4768 8.995C55.1688 8.82633 54.8351 8.742 54.4758 8.742C54.1091 8.742 53.7718 8.82633 53.4638 8.995C53.1631 9.15633 52.9211 9.40567 52.7378 9.743C52.5545 10.0803 52.4628 10.491 52.4628 10.975C52.4628 11.4663 52.5508 11.8807 52.7268 12.218C52.9101 12.5553 53.1521 12.8083 53.4528 12.977C53.7535 13.1383 54.0835 13.219 54.4428 13.219ZM60.9839 14.099C60.5219 14.099 60.1076 14.022 59.7409 13.868C59.3743 13.7067 59.0846 13.4867 58.8719 13.208C58.6593 12.922 58.5419 12.5957 58.5199 12.229H59.5539C59.5833 12.5297 59.7226 12.7753 59.9719 12.966C60.2286 13.1567 60.5623 13.252 60.9729 13.252C61.3543 13.252 61.6549 13.1677 61.8749 12.999C62.0949 12.8303 62.2049 12.6177 62.2049 12.361C62.2049 12.097 62.0876 11.9027 61.8529 11.778C61.6183 11.646 61.2553 11.5177 60.7639 11.393C60.3166 11.2757 59.9499 11.1583 59.6639 11.041C59.3853 10.9163 59.1433 10.7367 58.9379 10.502C58.7399 10.26 58.6409 9.94467 58.6409 9.556C58.6409 9.248 58.7326 8.96567 58.9159 8.709C59.0993 8.45233 59.3596 8.25067 59.6969 8.104C60.0343 7.95 60.4193 7.873 60.8519 7.873C61.5193 7.873 62.0583 8.04167 62.4689 8.379C62.8796 8.71633 63.0996 9.17833 63.1289 9.765H62.1279C62.1059 9.44967 61.9776 9.19667 61.7429 9.006C61.5156 8.81533 61.2076 8.72 60.8189 8.72C60.4596 8.72 60.1736 8.797 59.9609 8.951C59.7483 9.105 59.6419 9.30667 59.6419 9.556C59.6419 9.754 59.7043 9.919 59.8289 10.051C59.9609 10.1757 60.1223 10.2783 60.3129 10.359C60.5109 10.4323 60.7823 10.5167 61.1269 10.612C61.5596 10.7293 61.9116 10.8467 62.1829 10.964C62.4543 11.074 62.6853 11.2427 62.8759 11.47C63.0739 11.6973 63.1766 11.9943 63.1839 12.361C63.1839 12.691 63.0923 12.988 62.9089 13.252C62.7256 13.516 62.4653 13.725 62.1279 13.879C61.7979 14.0257 61.4166 14.099 60.9839 14.099ZM67.226 14.099C66.6613 14.099 66.148 13.9707 65.686 13.714C65.2313 13.4573 64.872 13.0943 64.608 12.625C64.3513 12.1483 64.223 11.5983 64.223 10.975C64.223 10.359 64.355 9.81633 64.619 9.347C64.8903 8.87033 65.257 8.50733 65.719 8.258C66.181 8.00133 66.698 7.873 67.27 7.873C67.842 7.873 68.359 8.00133 68.821 8.258C69.283 8.50733 69.646 8.86667 69.91 9.336C70.1813 9.80533 70.317 10.3517 70.317 10.975C70.317 11.5983 70.1777 12.1483 69.899 12.625C69.6277 13.0943 69.2573 13.4573 68.788 13.714C68.3187 13.9707 67.798 14.099 67.226 14.099ZM67.226 13.219C67.5853 13.219 67.9227 13.1347 68.238 12.966C68.5533 12.7973 68.8063 12.5443 68.997 12.207C69.195 11.8697 69.294 11.459 69.294 10.975C69.294 10.491 69.1987 10.0803 69.008 9.743C68.8173 9.40567 68.568 9.15633 68.26 8.995C67.952 8.82633 67.6183 8.742 67.259 8.742C66.8923 8.742 66.555 8.82633 66.247 8.995C65.9463 9.15633 65.7043 9.40567 65.521 9.743C65.3377 10.0803 65.246 10.491 65.246 10.975C65.246 11.4663 65.334 11.8807 65.51 12.218C65.6933 12.5553 65.9353 12.8083 66.236 12.977C66.5367 13.1383 66.8667 13.219 67.226 13.219ZM74.0861 8.797H72.8211V14H71.8201V8.797H71.0391V7.972H71.8201V7.543C71.8201 6.86833 71.9925 6.377 72.3371 6.069C72.6891 5.75367 73.2501 5.596 74.0201 5.596V6.432C73.5801 6.432 73.2685 6.52 73.0851 6.696C72.9091 6.86467 72.8211 7.147 72.8211 7.543V7.972H74.0861V8.797ZM76.4743 8.797V12.35C76.4743 12.6433 76.5366 12.8523 76.6613 12.977C76.7859 13.0943 77.0023 13.153 77.3102 13.153H78.0473V14H77.1453C76.5879 14 76.1699 13.8717 75.8913 13.615C75.6126 13.3583 75.4733 12.9367 75.4733 12.35V8.797H74.6923V7.972H75.4733V6.454H76.4743V7.972H78.0473V8.797H76.4743ZM83.1937 7.147V9.71H85.9877V10.535H83.1937V13.175H86.3177V14H82.1927V6.322H86.3177V7.147H83.1937ZM90.9784 14L89.5484 11.756L88.1734 14H87.1284L89.0754 11.008L87.1284 7.972H88.2614L89.6914 10.205L91.0554 7.972H92.1004L90.1644 10.953L92.1114 14H90.9784ZM92.722 10.975C92.722 10.3517 92.8467 9.809 93.096 9.347C93.3454 8.87767 93.69 8.51467 94.13 8.258C94.5774 8.00133 95.087 7.873 95.659 7.873C96.3997 7.873 97.0084 8.05267 97.485 8.412C97.969 8.77133 98.288 9.27 98.442 9.908H97.364C97.2614 9.54133 97.0597 9.25167 96.759 9.039C96.4657 8.82633 96.099 8.72 95.659 8.72C95.087 8.72 94.625 8.918 94.273 9.314C93.921 9.70267 93.745 10.2563 93.745 10.975C93.745 11.701 93.921 12.262 94.273 12.658C94.625 13.054 95.087 13.252 95.659 13.252C96.099 13.252 96.4657 13.1493 96.759 12.944C97.0524 12.7387 97.254 12.4453 97.364 12.064H98.442C98.2807 12.68 97.958 13.175 97.474 13.549C96.99 13.9157 96.385 14.099 95.659 14.099C95.087 14.099 94.5774 13.9707 94.13 13.714C93.69 13.4573 93.3454 13.0943 93.096 12.625C92.8467 12.1557 92.722 11.6057 92.722 10.975ZM105.278 10.755C105.278 10.9457 105.267 11.1473 105.245 11.36H100.427C100.463 11.954 100.665 12.4197 101.032 12.757C101.406 13.087 101.857 13.252 102.385 13.252C102.817 13.252 103.177 13.153 103.463 12.955C103.756 12.7497 103.961 12.4783 104.079 12.141H105.157C104.995 12.7203 104.673 13.1933 104.189 13.56C103.705 13.9193 103.103 14.099 102.385 14.099C101.813 14.099 101.299 13.9707 100.845 13.714C100.397 13.4573 100.045 13.0943 99.7887 12.625C99.532 12.1483 99.4037 11.5983 99.4037 10.975C99.4037 10.3517 99.5283 9.80533 99.7777 9.336C100.027 8.86667 100.375 8.50733 100.823 8.258C101.277 8.00133 101.798 7.873 102.385 7.873C102.957 7.873 103.463 7.99767 103.903 8.247C104.343 8.49633 104.68 8.841 104.915 9.281C105.157 9.71367 105.278 10.205 105.278 10.755ZM104.244 10.546C104.244 10.1647 104.159 9.83833 103.991 9.567C103.822 9.28833 103.591 9.07933 103.298 8.94C103.012 8.79333 102.693 8.72 102.341 8.72C101.835 8.72 101.402 8.88133 101.043 9.204C100.691 9.52667 100.489 9.974 100.438 10.546H104.244ZM107.6 5.86V14H106.599V5.86H107.6Z" fill="#424242"/>
</svg>
