<svg width="137" height="36" viewBox="0 0 137 36" fill="none" xmlns="http://www.w3.org/2000/svg">
<path d="M15.715 14.3973C13.8371 5.98922 9.92304 3.75089 8.92459 2.16862C8.51288 1.47159 8.14816 0.747059 7.83293 0C7.78019 0.746941 7.68329 1.21751 7.05772 1.78394C5.8017 2.92054 0.46726 7.33247 0.0183286 16.8858C-0.399938 25.7931 6.47019 31.2856 7.37786 31.8533C8.07579 32.2019 8.92582 31.8608 9.34041 31.5408C12.6522 29.234 17.1771 23.0842 15.7187 14.3973" fill="#969696"/>
<path d="M7.74028 27C7.56632 29.1882 7.4417 30.4596 7 31.71C7 31.71 7.28994 33.7932 7.49352 36H8.21407C8.38594 34.446 8.64836 32.9034 9 31.3801C8.06724 30.9205 7.77606 28.9201 7.74028 27Z" fill="#969696"/>
<path d="M9.43647 32C8.50877 31.5512 8.24042 29.4498 8.19914 27.492C8.42856 24.2624 8.49544 21.0225 8.39949 17.7855C8.35092 16.0871 8.42256 2.05443 8 0C8.28906 0.695814 8.6221 1.37068 8.99691 2.0201C9.98532 3.6372 13.8612 5.92301 15.7191 14.5094C17.1665 23.3653 12.7113 29.629 9.43647 32Z" fill="#969696"/>
<path d="M135 28.9998C134.605 28.9997 134.22 28.854 133.891 28.5808C133.563 28.3076 133.307 27.9192 133.155 27.4644C133.003 27.0096 132.962 26.5088 133.036 26.0248C133.111 25.5408 133.299 25.0954 133.576 24.7444C133.853 24.3935 134.207 24.1527 134.593 24.0523C134.979 23.952 135.38 23.9966 135.746 24.1805C136.112 24.3644 136.426 24.6794 136.649 25.0859C136.872 25.4925 136.994 25.9723 136.999 26.4652C137.006 26.7976 136.96 27.1283 136.862 27.4376C136.765 27.7469 136.618 28.0283 136.431 28.265C136.245 28.5017 136.021 28.6888 135.775 28.8151C135.529 28.9413 135.265 29.0042 135 28.9998M135 24.226C134.639 24.223 134.286 24.3538 133.986 24.6017C133.685 24.8497 133.45 25.2036 133.31 25.6188C133.17 26.0339 133.132 26.4916 133.201 26.9338C133.269 27.376 133.441 27.7828 133.695 28.1028C133.948 28.4228 134.272 28.6414 134.625 28.7311C134.978 28.8208 135.345 28.7775 135.678 28.6067C136.011 28.4358 136.297 28.1452 136.498 27.7715C136.699 27.3978 136.807 26.9578 136.808 26.5074C136.812 26.208 136.769 25.9104 136.68 25.6324C136.591 25.3543 136.458 25.1014 136.29 24.8887C136.121 24.6759 135.92 24.5077 135.698 24.3938C135.477 24.28 135.239 24.2229 135 24.226M135.482 28.0806L134.966 26.6898H134.55V28.0806H134.247V24.9162H134.994C135.549 24.9162 135.781 25.2175 135.781 25.8007C135.781 26.2648 135.606 26.5541 135.28 26.643L135.813 28.0761L135.482 28.0806ZM134.562 26.3628H135C135.354 26.3628 135.489 26.2121 135.489 25.8082C135.489 25.4044 135.36 25.2673 134.961 25.2673H134.562V26.3628Z" fill="#B9B9B9"/>
<path d="M103.771 27.0509C104.326 27.5109 105.435 27.7006 106.412 27.7006C107.679 27.7006 108.921 27.4571 110.134 26.3204C111.37 25.1556 112.221 23.3731 112.221 20.5269C112.221 17.7923 111.217 15.5727 109.158 14.2733C107.996 13.516 106.491 13.2174 104.775 13.2174C104.28 13.2174 103.771 13.2443 103.482 13.3801C103.363 13.4772 103.279 13.6125 103.243 13.7646C103.191 14.2515 103.191 17.9601 103.191 20.1527C103.191 22.4004 103.191 25.5349 103.243 25.9193C103.271 26.2448 103.429 26.8164 103.771 27.056M98.5014 12C98.95 12 100.655 12.0807 101.449 12.0807C102.932 12.0807 103.956 12 106.728 12C109.052 12 111.007 12.6497 112.405 13.894C114.095 15.4113 115 17.5219 115 20.0938C115 23.7485 113.393 25.8604 111.778 27.0509C110.172 28.2965 108.082 29 105.105 29C103.52 29 100.8 28.9462 98.5298 28.9193H98.4828C98.3766 28.7027 98.6769 27.8582 98.8622 27.8364C99.4802 27.7647 99.6433 27.739 99.9275 27.6173C100.407 27.4135 100.52 27.1598 100.573 26.2666C100.652 24.5879 100.626 22.585 100.626 20.3103C100.626 18.6867 100.652 15.5189 100.6 14.5168C100.52 13.6787 100.178 13.4622 99.4876 13.2994C98.9977 13.1915 98.5027 13.1102 98.0046 13.0559C97.9527 12.8932 98.358 12.1589 98.4903 12" fill="#B9B9B9"/>
<path d="M122.235 13.3242C122.13 13.3511 121.997 13.6223 121.997 13.7567C121.97 14.7303 121.944 17.27 121.944 19.0267C121.951 19.0603 121.967 19.0911 121.99 19.1152C122.014 19.1393 122.044 19.1557 122.077 19.1623C122.42 19.1892 123.268 19.2174 123.984 19.2174C124.991 19.2174 125.574 19.0817 125.892 18.9192C126.74 18.4868 127.132 17.54 127.132 16.5139C127.132 14.1623 125.542 13.2705 123.184 13.2705C122.865 13.2663 122.547 13.2843 122.23 13.3242M128.245 24.1355C128.245 21.7571 126.549 20.406 123.448 20.406C123.317 20.406 122.332 20.3791 122.098 20.4328C122.018 20.4597 121.939 20.5134 121.939 20.5685C121.939 22.2714 121.912 25.0005 121.992 26.0816C122.046 26.5409 122.364 27.1896 122.76 27.3789C123.184 27.622 124.138 27.6758 124.8 27.6758C126.628 27.6758 128.245 26.6228 128.245 24.1355M117.448 12C117.687 12 118.392 12.0806 120.194 12.0806C121.889 12.0806 123.267 12.0269 124.907 12.0269C126.947 12.0269 129.755 12.7843 129.755 15.9189C129.755 17.4543 128.696 18.703 127.318 19.298C127.238 19.3248 127.238 19.3786 127.318 19.4054C129.279 19.9172 131 21.1621 131 23.5406C131 25.8654 129.596 27.3252 127.556 28.2438C126.316 28.8119 124.774 29 123.215 29C122.023 29 118.828 28.8721 117.052 28.8925C116.866 28.8119 117.222 27.9457 117.381 27.8114C117.788 27.7985 118.192 27.7332 118.583 27.6169C119.218 27.4557 119.294 27.2446 119.373 26.2709C119.426 25.4329 119.426 22.4326 119.426 20.2972C119.426 17.3775 119.454 15.4059 119.426 14.4322C119.4 13.6761 119.135 13.4317 118.631 13.2974C118.234 13.2155 117.572 13.1349 117.043 13.0543C116.91 12.9186 117.318 12.1075 117.449 12" fill="#B9B9B9"/>
<path d="M21.2502 29C21.1814 28.8311 21.1536 28.6484 21.1689 28.4667C21.163 28.3428 21.191 28.2197 21.2502 28.1107C21.5955 28.0609 21.9377 27.9913 22.275 27.9021C22.7474 27.7847 22.9248 27.5274 22.9523 26.9254C23.0298 25.5028 23.0348 22.8337 23.0073 20.9576V20.9027C23.0073 20.7004 23.0073 20.4256 22.7574 20.232C22.3181 19.9565 21.8411 19.7462 21.3414 19.6075C21.1177 19.5413 20.994 19.4239 21.0002 19.2865C21.0065 19.1491 21.1477 18.9867 21.4389 18.9293C22.2125 18.8506 24.2396 18.3672 25.0357 18C25.1177 18.1068 25.1557 18.2408 25.1419 18.3747C25.1419 18.4571 25.1294 18.5446 25.1207 18.6345C25.0982 18.8993 25.0732 19.2003 25.0732 19.5001C25.0781 19.5365 25.093 19.5708 25.1164 19.5992C25.1398 19.6275 25.1706 19.6488 25.2054 19.6606C25.2402 19.6725 25.2776 19.6743 25.3134 19.666C25.3493 19.6577 25.382 19.6396 25.4081 19.6137C26.9241 18.4259 28.2825 18.0025 28.9787 18.0025C30.1247 18.0025 31.017 18.5496 31.7081 19.6762C31.724 19.7034 31.7465 19.726 31.7737 19.742C31.8008 19.758 31.8316 19.7667 31.8631 19.7673C31.8917 19.7671 31.9198 19.7599 31.9451 19.7464C31.9703 19.7329 31.9919 19.7135 32.0081 19.6899C33.4015 18.6332 34.7825 18.0025 35.7073 18.0025C37.8919 18.0025 39.1979 19.6374 39.1979 22.374C39.1979 23.1609 39.1904 24.1589 39.1829 25.0894C39.1767 25.9062 39.1704 26.6719 39.1704 27.2014C39.1704 27.3263 39.3429 27.686 39.6016 27.7572C39.9215 27.9134 40.3827 27.9933 40.9663 28.0932H40.9888C41.0325 28.2506 40.9401 28.8614 40.8513 28.9863C40.7064 28.9863 40.5064 28.9738 40.2564 28.9613C39.8028 28.9388 39.1804 28.9076 38.4568 28.9076C37.0046 28.9076 36.246 28.9351 35.5211 28.9825C35.4661 28.8014 35.4474 28.2169 35.5136 28.0945C35.8138 28.0476 36.1109 27.9829 36.4035 27.9009C36.8659 27.7485 36.9996 27.5387 37.0283 26.9254C37.0396 26.4895 37.1233 22.6488 36.9746 21.737C36.8371 20.7915 36.1248 19.6849 34.5663 19.6849C33.9877 19.6849 33.0541 19.926 32.1643 20.6004C32.1091 20.663 32.0781 20.7431 32.0768 20.8265V20.8452C32.1818 21.3373 32.1818 21.9119 32.1818 22.7799C32.1818 23.2796 32.1818 23.8004 32.1755 24.3212C32.1693 25.3804 32.1643 26.3796 32.1818 27.1352C32.1818 27.6498 32.493 27.7735 32.7442 27.8721C32.8804 27.9021 32.9879 27.9284 33.0966 27.9533C33.3053 28.0045 33.5228 28.057 33.8465 28.1082C33.8944 28.3276 33.8901 28.5552 33.834 28.7727C33.8207 28.8543 33.7886 28.9317 33.7402 28.9988C32.9329 28.9713 32.1043 28.9475 30.9083 28.9475C30.5459 28.9475 29.9547 28.9625 29.4323 28.9763C29.0087 28.9875 28.6087 28.9988 28.3813 29C28.3198 28.8549 28.2924 28.6977 28.3013 28.5404C28.2885 28.3921 28.3175 28.2433 28.385 28.1107L28.7062 28.052C28.9862 28.002 29.2286 27.9596 29.4561 27.9021C29.851 27.7772 29.9997 27.5624 30.0285 27.059C30.1059 25.885 30.1659 22.5014 29.9997 21.6546C29.7173 20.2957 28.9437 19.6062 27.6989 19.6062C26.9703 19.6062 26.0492 19.9572 25.2969 20.5205C25.2245 20.5909 25.1675 20.6755 25.1294 20.769C25.0914 20.8625 25.0731 20.9629 25.0757 21.0638C25.0757 21.4672 25.0757 21.9469 25.0757 22.4615C25.0757 24.1601 25.0644 26.2747 25.1057 27.1889C25.1307 27.4712 25.2306 27.8059 25.7593 27.9284C25.8755 27.9621 26.0755 27.9945 26.3079 28.0333C26.4417 28.0558 26.5879 28.0795 26.7391 28.107C26.7872 28.4061 26.7627 28.7123 26.6679 29C26.4354 29 26.1492 28.985 25.8218 28.9713C25.3219 28.9488 24.697 28.9213 23.9909 28.9213C23.1561 28.9213 22.5749 28.9488 22.1088 28.9713C21.7951 28.9863 21.5239 28.9988 21.2527 29" fill="#B9B9B9"/>
<path d="M47.9493 19.0989C47.5042 19.0897 47.0663 19.212 46.6913 19.4501C45.7762 20.002 45.31 21.1046 45.31 22.7248C45.31 25.7571 46.8406 27.8754 49.0322 27.8754C49.6198 27.8939 50.193 27.6925 50.638 27.3113C51.3114 26.7667 51.669 25.6531 51.669 24.0941C51.669 21.107 50.173 19.0989 47.9469 19.0989M48.3687 29C44.4097 29 43 26.1181 43 23.4223C43 21.539 43.7758 20.0669 45.3063 19.0451C46.3783 18.3866 47.6088 18.0257 48.8694 18C51.8898 18 54 20.155 54 23.2424C54 25.3399 53.1576 26.9968 51.563 28.032C50.7971 28.4971 49.4663 29 48.3687 29" fill="#B9B9B9"/>
<path d="M88.9469 19.0989C88.5008 19.0889 88.062 19.2112 87.6864 19.4501C86.7713 20.002 86.3051 21.1046 86.3051 22.7248C86.3051 25.7571 87.8356 27.8754 90.0272 27.8754C90.6166 27.8951 91.1917 27.6937 91.638 27.3113C92.3114 26.7667 92.6678 25.6531 92.6678 24.0941C92.6678 21.107 91.173 19.0989 88.9469 19.0989M89.3686 29C85.4097 29 84 26.1181 84 23.4235C84 21.5378 84.7758 20.0669 86.3075 19.0451C87.3789 18.3862 88.6091 18.0252 89.8694 18C92.8898 18 95 20.1562 95 23.2412C95 25.3411 94.1576 26.9968 92.563 28.0308C91.7971 28.4971 90.4663 29 89.3686 29" fill="#B9B9B9"/>
<path d="M75.4954 18.9934C74.2882 18.9934 73.5071 19.9372 73.5071 21.3983C73.5071 22.8594 74.1796 24.596 76.0703 24.596C76.395 24.596 76.9833 24.4534 77.275 24.1356C77.7144 23.7356 78.0074 22.9089 78.0074 22.0364C78.0074 20.1306 77.0699 18.9934 75.5015 18.9934M75.3453 29.0771C75.0042 29.0734 74.668 29.1567 74.3688 29.3188C73.4131 29.9231 72.97 30.5273 72.97 31.2295C72.97 31.8869 73.2276 32.4102 73.7817 32.8742C74.453 33.4374 75.3587 33.7117 76.5488 33.7117C78.8911 33.7117 79.9408 32.4646 79.9408 31.2295C79.9408 30.369 79.505 29.7926 78.6079 29.4663C77.917 29.2161 76.7624 29.0783 75.3489 29.0783M75.5052 35C74.0991 35 73.086 34.7063 72.2206 34.0465C71.3784 33.4036 71 32.4489 71 31.789C71.0091 31.3638 71.1729 30.9561 71.4614 30.6409C71.7055 30.3654 72.2731 29.8494 73.5852 28.9563C73.6055 28.9477 73.6229 28.9334 73.635 28.9151C73.6472 28.8969 73.6536 28.8754 73.6535 28.8536C73.654 28.8291 73.646 28.8053 73.6309 28.786C73.6158 28.7666 73.5945 28.753 73.5705 28.7472C72.4903 28.3375 72.1644 27.6596 72.0656 27.297C72.0656 27.2837 72.0656 27.2632 72.0546 27.2402C72.0241 27.0976 71.9948 26.9623 72.1913 26.8233C72.3426 26.7169 72.5843 26.5743 72.8431 26.4233C73.2084 26.2231 73.5587 25.9973 73.8916 25.7477C73.9094 25.7287 73.9227 25.7058 73.9303 25.6809C73.9379 25.6561 73.9396 25.6298 73.9354 25.6041C73.9312 25.5784 73.921 25.5541 73.9058 25.5329C73.8906 25.5117 73.8707 25.4942 73.8476 25.4818C72.2486 24.9501 71.4431 23.7742 71.4431 21.9772C71.4382 21.4168 71.5698 20.8635 71.827 20.3643C72.0841 19.865 72.459 19.4346 72.92 19.1094C73.5632 18.6055 75.178 18 76.2241 18H76.2851C77.3604 18.0254 77.9671 18.249 78.8068 18.5559C79.2845 18.7269 79.7907 18.8065 80.2984 18.7904C81.1882 18.7904 81.5776 18.5112 81.912 18.1861C81.9662 18.3325 81.9951 18.487 81.9974 18.6429C82.0179 19.0145 81.9159 19.3826 81.7069 19.6919C81.5251 19.9421 81.0966 20.1233 80.7048 20.1233C80.6646 20.1233 80.6255 20.1233 80.5828 20.1173C80.3766 20.1029 80.1723 20.0693 79.9725 20.017L79.8724 20.052C79.8407 20.098 79.8614 20.1487 79.8871 20.214C79.8933 20.2267 79.8982 20.2401 79.9017 20.2539C79.9731 20.5764 80.0217 20.9035 80.0469 21.2327C80.0469 23.112 79.2987 23.9301 78.4895 24.5368C77.7071 25.118 76.7779 25.4743 75.8042 25.5664V25.5664C75.7835 25.5664 75.6821 25.5749 75.4917 25.5918C75.3697 25.6027 75.211 25.6172 75.1878 25.6172H75.1646C74.9889 25.6655 74.5299 25.8819 74.5299 26.2843C74.5299 26.6178 74.7374 27.0323 75.7298 27.1073L76.3718 27.152C77.6802 27.2426 79.3146 27.355 80.0836 27.6124C80.5937 27.79 81.0342 28.1223 81.3425 28.5621C81.6509 29.0019 81.8113 29.5268 81.8009 30.0621C81.8009 31.7479 80.5901 33.3335 78.5627 34.3027C77.6066 34.7548 76.5598 34.9874 75.5003 34.9831" fill="#B9B9B9"/>
<path d="M69.9368 27.9612C69.3189 27.8836 68.868 27.8049 68.3356 27.571C68.2311 27.4697 68.1623 27.3408 68.1384 27.2017C68.0818 26.3955 68.0818 24.0557 68.0818 22.5246C68.0818 21.2753 67.8583 20.186 67.293 19.4044C66.6186 18.5194 65.6642 18 64.4284 18C63.3333 18 61.8727 18.7016 60.6658 19.6641C60.6369 19.6899 60.4515 19.8549 60.4555 19.5989C60.4594 19.3428 60.5015 18.8234 60.5278 18.4911C60.5394 18.4028 60.5289 18.3132 60.4969 18.2294C60.465 18.1456 60.4125 18.07 60.3437 18.0086C59.5549 18.3779 57.3423 18.8702 56.5233 18.9453C55.9264 19.0536 55.7752 19.5915 56.4129 19.7773H56.4221C56.9325 19.9091 57.4196 20.1098 57.8682 20.3731C58.1206 20.5552 58.093 20.8149 58.093 21.0229C58.1206 22.7646 58.1206 25.4429 58.0365 26.899C58.0089 27.4713 57.8393 27.6793 57.3897 27.7839L57.4317 27.7704C57.0893 27.8507 56.7421 27.9116 56.3918 27.9526C56.2512 28.0818 56.2512 28.8363 56.3918 28.9926C56.6732 28.9926 58.1009 28.9151 59.2841 28.9151C60.9116 28.9151 61.7543 28.9926 62.1763 28.9926C62.3459 28.8105 62.4012 28.1089 62.2894 27.9526C61.9005 27.9361 61.5143 27.8837 61.1365 27.7962C60.6882 27.6928 60.5751 27.4836 60.5475 27.0171C60.4923 25.7937 60.4923 23.1941 60.4923 21.4254C60.4923 20.9331 60.6316 20.698 60.7999 20.5638C61.3613 20.0961 62.2894 19.7847 63.1032 19.7847C63.892 19.7847 64.4179 20.0186 64.8123 20.33C65.2716 20.7053 65.5596 21.2313 65.6168 21.7996C65.7286 22.7843 65.6997 24.7647 65.6997 26.4768C65.6997 27.4134 65.6168 27.6485 65.2513 27.7519C65.0831 27.8295 64.6335 27.9082 64.0997 27.9599C63.9314 28.1163 63.9866 28.8437 64.0997 29C64.8293 29 65.6773 28.9225 66.9078 28.9225C68.4526 28.9225 69.4359 29 69.829 29C69.9973 28.8178 70.0538 28.1384 69.9421 27.9599" fill="#B9B9B9"/>
</svg>
