<svg width="92" height="23" viewBox="0 0 92 23" fill="none" xmlns="http://www.w3.org/2000/svg">
<path d="M20.9187 13.7713C20.7927 13.3663 20.4629 13.0842 20.0363 13.0165C19.8352 12.9846 19.6048 12.9982 19.3323 13.0579C18.8571 13.162 18.5046 13.2016 18.2474 13.2093C19.2184 11.4684 20.0079 9.48307 20.4625 7.61425C21.1975 4.5924 20.8047 3.21576 20.3458 2.59308C19.1311 0.944913 17.359 0.0595015 15.2211 0.0324095C14.0806 0.0176003 13.0794 0.256724 12.5571 0.428684C12.0708 0.337565 11.548 0.286691 10.9994 0.277283C9.97093 0.25986 9.06227 0.497939 8.28584 0.98725C7.856 0.832886 7.16612 0.615279 6.36943 0.476422C4.49567 0.14975 2.98548 0.404293 1.88084 1.23299C0.543241 2.23636 -0.0768331 3.97965 0.0378466 6.41445C0.0742685 7.18748 0.481472 9.53952 1.12263 11.7701C1.49111 13.0522 1.88404 14.1169 2.29051 14.9349C2.86694 16.0948 3.48373 16.7779 4.17616 17.0232C4.56425 17.1605 5.26939 17.2566 6.01103 16.6007C6.10504 16.7216 6.23047 16.8417 6.39691 16.9533C6.6083 17.0949 6.86679 17.2106 7.12494 17.2791C8.05525 17.5261 8.92667 17.4643 9.67012 17.1181C9.67472 17.2586 9.67824 17.3927 9.6812 17.5086C9.68612 17.6965 9.69104 17.8807 9.69752 18.053C9.74157 19.2181 9.81622 20.124 10.0374 20.7578C10.0495 20.7926 10.0658 20.8458 10.0831 20.9021C10.1934 21.2609 10.3779 21.8614 10.8473 22.3317C11.3333 22.819 11.9212 22.9683 12.4597 22.9683C12.7297 22.9683 12.9874 22.9307 13.2134 22.8793C14.0189 22.6959 14.9338 22.4167 15.5956 21.4159C16.2214 20.4699 16.5256 19.045 16.5806 16.7998C16.5877 16.7363 16.5943 16.6757 16.6006 16.6179L16.6137 16.4993L16.7611 16.5131L16.7991 16.5158C17.6196 16.5555 18.6228 16.3707 19.239 16.0668C19.7258 15.8269 21.286 14.9522 20.9187 13.7713Z" fill="black"/>
<path d="M19.5157 14.0009C17.0761 14.5353 16.9083 13.6582 16.9083 13.6582C19.4841 9.59936 20.5609 4.44727 19.6318 3.18631C17.0967 -0.253323 12.7084 1.37342 12.6351 1.41558L12.6116 1.42011C12.1296 1.31383 11.5902 1.25059 10.9839 1.24005C9.88012 1.22088 9.04275 1.54738 8.40734 2.05908C8.40734 2.05908 0.579092 -1.36566 0.943229 6.36627C1.02067 8.01113 3.16332 18.8123 5.71892 15.5498C6.65301 14.3568 7.5556 13.3482 7.5556 13.3482C8.00382 13.6644 8.54047 13.8257 9.10304 13.7678L9.14676 13.7284C9.13315 13.8765 9.13938 14.0214 9.16424 14.1929C8.50586 14.974 8.69937 15.1111 7.38326 15.3989C6.05148 15.6904 6.83381 16.2092 7.34462 16.3449C7.96387 16.5093 9.39647 16.7422 10.3644 15.3032L10.3259 15.4674C10.5838 15.6869 10.7649 16.8946 10.7346 17.9895C10.7042 19.0843 10.6839 19.836 10.8871 20.4232C11.0905 21.0103 11.293 22.3314 13.0232 21.9377C14.4689 21.6087 15.2181 20.7561 15.3223 19.3339C15.3962 18.3229 15.5637 18.4724 15.5742 17.5684L15.7084 17.1405C15.8632 15.77 15.7331 15.3278 16.6237 15.5335L16.8402 15.5537C17.4957 15.5853 18.3537 15.4417 18.8573 15.1931C19.9416 14.6588 20.5847 13.7665 19.5155 14.0009H19.5157Z" fill="#336791"/>
<path d="M8.8656 7.10184C8.64575 7.06935 8.44666 7.09941 8.34593 7.18042C8.28933 7.22598 8.27177 7.27877 8.26702 7.3151C8.25438 7.41135 8.31788 7.51781 8.35692 7.57269C8.46734 7.7281 8.62861 7.8349 8.78824 7.85842C8.81138 7.8619 8.83443 7.86347 8.85731 7.86347C9.1235 7.86347 9.36558 7.64334 9.38691 7.48087C9.41357 7.27738 9.1354 7.14174 8.8656 7.10193M16.1487 7.10829C16.1277 6.94879 15.8604 6.90331 15.6068 6.94077C15.3534 6.97823 15.1078 7.09967 15.1284 7.25952C15.1448 7.38383 15.3562 7.59603 15.6064 7.59603C15.6275 7.59603 15.6488 7.59455 15.6703 7.59133C15.8374 7.56676 15.9599 7.45413 16.0181 7.38923C16.1067 7.29027 16.1581 7.17998 16.1487 7.10829Z" fill="white"/>
<path d="M20.3276 13.9402C20.2345 13.6415 19.9351 13.5454 19.4377 13.6544C17.9607 13.9782 17.4318 13.7539 17.2581 13.6181C18.4061 11.7609 19.3506 9.51582 19.8601 7.4212C20.1014 6.42899 20.2347 5.50751 20.2456 4.75643C20.2577 3.93209 20.1254 3.3263 19.8528 2.95625C18.7534 1.46445 17.1398 0.664234 15.1867 0.642281C13.8439 0.626253 12.7094 0.991167 12.4895 1.09379C12.0263 0.971479 11.5214 0.896389 10.9717 0.886806C9.96374 0.869471 9.0924 1.12576 8.37102 1.64817C8.05766 1.5243 7.24785 1.22907 6.25748 1.05964C4.54533 0.766939 3.18476 0.988728 2.21383 1.71917C1.05531 2.59081 0.520462 4.14891 0.624068 6.35007C0.658931 7.09061 1.05629 9.36878 1.68334 11.5505C2.50874 14.4221 3.40599 16.0477 4.35001 16.3821C4.46051 16.4212 4.5879 16.4486 4.72842 16.4486C5.07279 16.4486 5.495 16.2838 5.93428 15.7229C6.47007 15.0404 7.02431 14.3744 7.59631 13.7258C7.96742 13.9373 8.37512 14.0554 8.79208 14.0673C8.7929 14.0789 8.79397 14.0904 8.79496 14.1019C8.72318 14.1928 8.6529 14.285 8.58413 14.3785C8.29522 14.768 8.23509 14.8491 7.3051 15.0524C7.04055 15.1104 6.33795 15.2642 6.32762 15.7872C6.31646 16.3587 7.15819 16.5987 7.25408 16.6241C7.58828 16.713 7.91025 16.7568 8.21729 16.7568C8.96402 16.7568 9.62117 16.4961 10.1463 15.9919C10.1302 18.0291 10.2102 20.0365 10.4405 20.6481C10.6292 21.1488 11.09 22.3725 12.5458 22.3724C12.7594 22.3724 12.9945 22.346 13.2531 22.2871C14.7724 21.9413 15.4322 21.2282 15.6874 19.6561C15.824 18.8159 16.0583 16.8096 16.1686 15.7334C16.4012 15.8105 16.7007 15.8458 17.0245 15.8457C17.6998 15.8457 18.479 15.6933 18.9677 15.4525C19.5166 15.1817 20.5072 14.5174 20.3276 13.9402ZM16.7095 6.66803C16.7045 6.98573 16.6633 7.27416 16.6197 7.57522C16.5727 7.89901 16.5241 8.23379 16.5119 8.64017C16.4998 9.03566 16.5463 9.44683 16.5913 9.8445C16.6822 10.6477 16.7754 11.4745 16.4144 12.2904C16.3545 12.1776 16.301 12.061 16.2545 11.9412C16.2096 11.8257 16.1121 11.6401 15.9772 11.3833C15.4523 10.3836 14.223 8.04258 14.8523 7.0873C15.0397 6.80296 15.5154 6.51061 16.7095 6.66803ZM15.2621 1.28561C17.0122 1.32664 18.3966 2.02188 19.3767 3.35192C20.1284 4.37209 19.3006 9.01405 16.9042 13.0187C16.8801 12.9862 16.8559 12.9537 16.8316 12.9214L16.8012 12.8812C17.4205 11.7951 17.2994 10.7206 17.1916 9.76793C17.1473 9.37696 17.1055 9.00769 17.1161 8.66081C17.1271 8.2932 17.1729 7.97785 17.2172 7.67296C17.2716 7.29724 17.3269 6.90846 17.3117 6.45016C17.3231 6.40207 17.3277 6.34528 17.3217 6.27785C17.2827 5.83837 16.8102 4.52306 15.8472 3.33258C15.3204 2.68141 14.5522 1.95271 13.5032 1.46123C13.9544 1.36192 14.5714 1.26932 15.2621 1.28561ZM5.46941 15.3125C4.98542 15.9304 4.65123 15.812 4.54131 15.7731C3.82517 15.5194 2.9942 13.912 2.26158 11.3631C1.62764 9.15762 1.25718 6.93982 1.22782 6.31792C1.13529 4.3511 1.58424 2.98038 2.5623 2.24376C4.15404 1.04509 6.771 1.76255 7.82256 2.12642C7.80746 2.14227 7.79171 2.15708 7.77678 2.1732C6.05117 4.02381 6.09211 7.18565 6.09637 7.37895C6.09621 7.45352 6.10212 7.5591 6.11015 7.70432C6.13985 8.23614 6.19514 9.22591 6.04748 10.3468C5.91033 11.3884 6.21269 12.4079 6.8769 13.1439C6.94507 13.2193 7.01671 13.291 7.09158 13.3589C6.79594 13.6951 6.15339 14.4387 5.46941 15.3125ZM7.31339 12.6997C6.77805 12.1065 6.53491 11.2813 6.64623 10.4356C6.80209 9.25161 6.74458 8.22037 6.71366 7.66634C6.70931 7.58881 6.70545 7.52086 6.70324 7.46728C6.95532 7.2299 8.12353 6.56523 8.95664 6.76795C9.33677 6.86037 9.56843 7.1353 9.66473 7.60814C10.1632 10.0563 9.73069 11.0766 9.3832 11.8966C9.31159 12.0655 9.24391 12.2252 9.18616 12.3904L9.14137 12.5181C9.02801 12.8409 8.92251 13.1411 8.85713 13.4261C8.288 13.4244 7.73437 13.1662 7.31339 12.6996V12.6997ZM7.40075 16.0013C7.23456 15.9572 7.0851 15.8806 6.9974 15.8171C7.07066 15.7805 7.20101 15.7307 7.42708 15.6812C8.52113 15.4421 8.69012 15.2733 9.0591 14.7758C9.14367 14.6616 9.23956 14.5324 9.37237 14.3749L9.37254 14.3747C9.57031 14.1395 9.6608 14.1794 9.82486 14.2517C9.95783 14.3101 10.0874 14.4871 10.1399 14.6819C10.1647 14.7738 10.1926 14.9484 10.1013 15.0843C9.33054 16.2304 8.20737 16.2156 7.40075 16.0013ZM13.1265 21.6594C11.788 21.9639 11.3141 21.2387 11.0018 20.4097C10.8003 19.8745 10.7012 17.4609 10.7715 14.7955C10.7724 14.7601 10.7676 14.7258 10.7585 14.6936C10.7502 14.63 10.7377 14.567 10.721 14.5053C10.6165 14.1175 10.3618 13.793 10.0563 13.6585C9.93486 13.6051 9.71206 13.5071 9.44431 13.5799C9.50141 13.33 9.60042 13.0479 9.7078 12.7424L9.75283 12.6139C9.80353 12.469 9.86719 12.3189 9.93445 12.16C10.2981 11.3022 10.7961 10.1271 10.2556 7.47251C10.0532 6.47821 9.37705 5.99264 8.35215 6.10545C7.73774 6.17297 7.17558 6.43622 6.89519 6.58719C6.8349 6.61959 6.77978 6.65095 6.72826 6.68144C6.80652 5.67965 7.10216 3.80743 8.2081 2.62287C8.90447 1.87719 9.83183 1.50888 10.9617 1.52874C13.1881 1.56742 14.6157 2.78072 15.4214 3.79183C16.1158 4.66305 16.4917 5.5407 16.6417 6.01407C15.5134 5.8922 14.746 6.12871 14.357 6.71934C13.5107 8.00407 14.82 10.4976 15.4492 11.696C15.5647 11.9156 15.6643 12.1054 15.6956 12.1861C15.9005 12.7135 16.1658 13.0656 16.3595 13.3226C16.4189 13.4013 16.4764 13.4777 16.5202 13.5444C16.1785 13.649 15.5647 13.8908 15.6206 15.0991C15.5755 15.7054 15.2547 18.5441 15.0917 19.547C14.8765 20.872 14.4174 21.3655 13.1265 21.6595V21.6594ZM18.7131 14.8702C18.3637 15.0424 17.7789 15.1716 17.2233 15.1994C16.6097 15.2299 16.2974 15.1264 16.2239 15.0627C16.1894 14.3097 16.4533 14.231 16.7326 14.1478C16.7765 14.1347 16.8193 14.1219 16.8607 14.1066C16.8864 14.1288 16.9145 14.1508 16.9453 14.1724C17.4385 14.5181 18.3181 14.5554 19.56 14.2831L19.5736 14.2803C19.4061 14.4466 19.1195 14.6697 18.7131 14.8702Z" fill="white"/>
<path d="M37.973 9.577C37.973 10.215 37.753 10.7467 37.313 11.172C36.8803 11.59 36.2167 11.799 35.322 11.799H33.848V15H32.847V7.333H35.322C36.1873 7.333 36.8437 7.542 37.291 7.96C37.7457 8.378 37.973 8.917 37.973 9.577ZM35.322 10.974C35.8793 10.974 36.29 10.853 36.554 10.611C36.818 10.369 36.95 10.0243 36.95 9.577C36.95 8.631 36.4073 8.158 35.322 8.158H33.848V10.974H35.322ZM41.8461 15.099C41.2815 15.099 40.7681 14.9707 40.3061 14.714C39.8515 14.4573 39.4921 14.0943 39.2281 13.625C38.9715 13.1483 38.8431 12.5983 38.8431 11.975C38.8431 11.359 38.9751 10.8163 39.2391 10.347C39.5105 9.87033 39.8771 9.50733 40.3391 9.258C40.8011 9.00133 41.3181 8.873 41.8901 8.873C42.4621 8.873 42.9791 9.00133 43.4411 9.258C43.9031 9.50733 44.2661 9.86667 44.5301 10.336C44.8015 10.8053 44.9371 11.3517 44.9371 11.975C44.9371 12.5983 44.7978 13.1483 44.5191 13.625C44.2478 14.0943 43.8775 14.4573 43.4081 14.714C42.9388 14.9707 42.4181 15.099 41.8461 15.099ZM41.8461 14.219C42.2055 14.219 42.5428 14.1347 42.8581 13.966C43.1735 13.7973 43.4265 13.5443 43.6171 13.207C43.8151 12.8697 43.9141 12.459 43.9141 11.975C43.9141 11.491 43.8188 11.0803 43.6281 10.743C43.4375 10.4057 43.1881 10.1563 42.8801 9.995C42.5721 9.82633 42.2385 9.742 41.8791 9.742C41.5125 9.742 41.1751 9.82633 40.8671 9.995C40.5665 10.1563 40.3245 10.4057 40.1411 10.743C39.9578 11.0803 39.8661 11.491 39.8661 11.975C39.8661 12.4663 39.9541 12.8807 40.1301 13.218C40.3135 13.5553 40.5555 13.8083 40.8561 13.977C41.1568 14.1383 41.4868 14.219 41.8461 14.219ZM48.3873 15.099C47.9253 15.099 47.5109 15.022 47.1443 14.868C46.7776 14.7067 46.4879 14.4867 46.2753 14.208C46.0626 13.922 45.9453 13.5957 45.9233 13.229H46.9573C46.9866 13.5297 47.1259 13.7753 47.3753 13.966C47.6319 14.1567 47.9656 14.252 48.3763 14.252C48.7576 14.252 49.0583 14.1677 49.2783 13.999C49.4983 13.8303 49.6083 13.6177 49.6083 13.361C49.6083 13.097 49.4909 12.9027 49.2563 12.778C49.0216 12.646 48.6586 12.5177 48.1673 12.393C47.7199 12.2757 47.3533 12.1583 47.0673 12.041C46.7886 11.9163 46.5466 11.7367 46.3413 11.502C46.1433 11.26 46.0443 10.9447 46.0443 10.556C46.0443 10.248 46.1359 9.96567 46.3193 9.709C46.5026 9.45233 46.7629 9.25067 47.1003 9.104C47.4376 8.95 47.8226 8.873 48.2553 8.873C48.9226 8.873 49.4616 9.04167 49.8723 9.379C50.2829 9.71633 50.5029 10.1783 50.5323 10.765H49.5313C49.5093 10.4497 49.3809 10.1967 49.1463 10.006C48.9189 9.81533 48.6109 9.72 48.2223 9.72C47.8629 9.72 47.5769 9.797 47.3643 9.951C47.1516 10.105 47.0453 10.3067 47.0453 10.556C47.0453 10.754 47.1076 10.919 47.2323 11.051C47.3643 11.1757 47.5256 11.2783 47.7163 11.359C47.9143 11.4323 48.1856 11.5167 48.5303 11.612C48.9629 11.7293 49.3149 11.8467 49.5863 11.964C49.8576 12.074 50.0886 12.2427 50.2793 12.47C50.4773 12.6973 50.5799 12.9943 50.5873 13.361C50.5873 13.691 50.4956 13.988 50.3123 14.252C50.1289 14.516 49.8686 14.725 49.5313 14.879C49.2013 15.0257 48.8199 15.099 48.3873 15.099ZM53.2213 9.797V13.35C53.2213 13.6433 53.2837 13.8523 53.4083 13.977C53.533 14.0943 53.7493 14.153 54.0573 14.153H54.7943V15H53.8923C53.335 15 52.917 14.8717 52.6383 14.615C52.3597 14.3583 52.2203 13.9367 52.2203 13.35V9.797H51.4393V8.972H52.2203V7.454H53.2213V8.972H54.7943V9.797H53.2213ZM57.0082 9.951C57.1842 9.60633 57.4335 9.33867 57.7562 9.148C58.0862 8.95733 58.4858 8.862 58.9552 8.862V9.896H58.6912C57.5692 9.896 57.0082 10.5047 57.0082 11.722V15H56.0072V8.972H57.0082V9.951ZM65.6107 11.755C65.6107 11.9457 65.5997 12.1473 65.5777 12.36H60.7597C60.7963 12.954 60.998 13.4197 61.3647 13.757C61.7387 14.087 62.1897 14.252 62.7177 14.252C63.1503 14.252 63.5097 14.153 63.7957 13.955C64.089 13.7497 64.2943 13.4783 64.4117 13.141H65.4897C65.3283 13.7203 65.0057 14.1933 64.5217 14.56C64.0377 14.9193 63.4363 15.099 62.7177 15.099C62.1457 15.099 61.6323 14.9707 61.1777 14.714C60.7303 14.4573 60.3783 14.0943 60.1217 13.625C59.865 13.1483 59.7367 12.5983 59.7367 11.975C59.7367 11.3517 59.8613 10.8053 60.1107 10.336C60.36 9.86667 60.7083 9.50733 61.1557 9.258C61.6103 9.00133 62.131 8.873 62.7177 8.873C63.2897 8.873 63.7957 8.99767 64.2357 9.247C64.6757 9.49633 65.013 9.841 65.2477 10.281C65.4897 10.7137 65.6107 11.205 65.6107 11.755ZM64.5767 11.546C64.5767 11.1647 64.4923 10.8383 64.3237 10.567C64.155 10.2883 63.924 10.0793 63.6307 9.94C63.3447 9.79333 63.0257 9.72 62.6737 9.72C62.1677 9.72 61.735 9.88133 61.3757 10.204C61.0237 10.5267 60.822 10.974 60.7707 11.546H64.5767ZM69.066 15.099C68.604 15.099 68.1896 15.022 67.823 14.868C67.4563 14.7067 67.1666 14.4867 66.954 14.208C66.7413 13.922 66.624 13.5957 66.602 13.229H67.636C67.6653 13.5297 67.8046 13.7753 68.054 13.966C68.3106 14.1567 68.6443 14.252 69.055 14.252C69.4363 14.252 69.737 14.1677 69.957 13.999C70.177 13.8303 70.287 13.6177 70.287 13.361C70.287 13.097 70.1696 12.9027 69.935 12.778C69.7003 12.646 69.3373 12.5177 68.846 12.393C68.3986 12.2757 68.032 12.1583 67.746 12.041C67.4673 11.9163 67.2253 11.7367 67.02 11.502C66.822 11.26 66.723 10.9447 66.723 10.556C66.723 10.248 66.8146 9.96567 66.998 9.709C67.1813 9.45233 67.4416 9.25067 67.779 9.104C68.1163 8.95 68.5013 8.873 68.934 8.873C69.6013 8.873 70.1403 9.04167 70.551 9.379C70.9616 9.71633 71.1816 10.1783 71.211 10.765H70.21C70.188 10.4497 70.0596 10.1967 69.825 10.006C69.5976 9.81533 69.2896 9.72 68.901 9.72C68.5416 9.72 68.2556 9.797 68.043 9.951C67.8303 10.105 67.724 10.3067 67.724 10.556C67.724 10.754 67.7863 10.919 67.911 11.051C68.043 11.1757 68.2043 11.2783 68.395 11.359C68.593 11.4323 68.8643 11.5167 69.209 11.612C69.6416 11.7293 69.9936 11.8467 70.265 11.964C70.5363 12.074 70.7673 12.2427 70.958 12.47C71.156 12.6973 71.2586 12.9943 71.266 13.361C71.266 13.691 71.1743 13.988 70.991 14.252C70.8076 14.516 70.5473 14.725 70.21 14.879C69.88 15.0257 69.4986 15.099 69.066 15.099ZM75.11 15.077C74.604 15.077 74.1494 14.989 73.746 14.813C73.35 14.6297 73.0384 14.3803 72.811 14.065C72.5837 13.7423 72.4664 13.372 72.459 12.954H73.526C73.5627 13.3133 73.7094 13.6177 73.966 13.867C74.23 14.109 74.6114 14.23 75.11 14.23C75.5867 14.23 75.9607 14.1127 76.232 13.878C76.5107 13.636 76.65 13.328 76.65 12.954C76.65 12.6607 76.5694 12.4223 76.408 12.239C76.2467 12.0557 76.045 11.9163 75.803 11.821C75.561 11.7257 75.2347 11.623 74.824 11.513C74.318 11.381 73.911 11.249 73.603 11.117C73.3024 10.985 73.042 10.7797 72.822 10.501C72.6094 10.215 72.503 9.83367 72.503 9.357C72.503 8.939 72.6094 8.56867 72.822 8.246C73.0347 7.92333 73.3317 7.674 73.713 7.498C74.1017 7.322 74.5454 7.234 75.044 7.234C75.7627 7.234 76.3494 7.41367 76.804 7.773C77.266 8.13233 77.5264 8.609 77.585 9.203H76.485C76.4484 8.90967 76.2944 8.653 76.023 8.433C75.7517 8.20567 75.3924 8.092 74.945 8.092C74.527 8.092 74.186 8.202 73.922 8.422C73.658 8.63467 73.526 8.93533 73.526 9.324C73.526 9.60267 73.603 9.83 73.757 10.006C73.9184 10.182 74.1127 10.3177 74.34 10.413C74.5747 10.501 74.901 10.6037 75.319 10.721C75.825 10.8603 76.232 10.9997 76.54 11.139C76.848 11.271 77.112 11.48 77.332 11.766C77.552 12.0447 77.662 12.426 77.662 12.91C77.662 13.284 77.563 13.636 77.365 13.966C77.167 14.296 76.8737 14.5637 76.485 14.769C76.0964 14.9743 75.638 15.077 75.11 15.077ZM85.2841 16.452L83.7551 14.923C83.3811 15.0257 82.9998 15.077 82.6111 15.077C81.8998 15.077 81.2508 14.912 80.6641 14.582C80.0774 14.2447 79.6118 13.779 79.2671 13.185C78.9298 12.5837 78.7611 11.909 78.7611 11.161C78.7611 10.413 78.9298 9.742 79.2671 9.148C79.6118 8.54667 80.0774 8.081 80.6641 7.751C81.2508 7.41367 81.8998 7.245 82.6111 7.245C83.3298 7.245 83.9824 7.41367 84.5691 7.751C85.1558 8.081 85.6178 8.543 85.9551 9.137C86.2924 9.731 86.4611 10.4057 86.4611 11.161C86.4611 11.8943 86.2998 12.5543 85.9771 13.141C85.6544 13.7277 85.2108 14.1897 84.6461 14.527L86.5821 16.452H85.2841ZM79.7841 11.161C79.7841 11.7697 79.9051 12.305 80.1471 12.767C80.3964 13.229 80.7338 13.5847 81.1591 13.834C81.5918 14.0833 82.0758 14.208 82.6111 14.208C83.1464 14.208 83.6268 14.0833 84.0521 13.834C84.4848 13.5847 84.8221 13.229 85.0641 12.767C85.3134 12.305 85.4381 11.7697 85.4381 11.161C85.4381 10.545 85.3134 10.0097 85.0641 9.555C84.8221 9.093 84.4884 8.73733 84.0631 8.488C83.6378 8.23867 83.1538 8.114 82.6111 8.114C82.0684 8.114 81.5844 8.23867 81.1591 8.488C80.7338 8.73733 80.3964 9.093 80.1471 9.555C79.9051 10.0097 79.7841 10.545 79.7841 11.161ZM88.805 14.186H91.489V15H87.804V7.333H88.805V14.186Z" fill="#424242"/>
</svg>
