<svg width="105" height="18" viewBox="0 0 105 18" fill="none" xmlns="http://www.w3.org/2000/svg">
<path d="M12.9509 16.9265C12.9507 17.1961 12.8429 17.4546 12.6513 17.6453C12.4597 17.836 12.1998 17.9432 11.9288 17.9434H1.02291C0.751901 17.9434 0.491966 17.8364 0.30018 17.6459C0.108393 17.4554 0.000431871 17.1969 3.2476e-07 16.9273V1.04526C-0.000106778 0.911581 0.0262784 0.779189 0.0776466 0.655663C0.129015 0.532136 0.204358 0.419898 0.299365 0.32537C0.394373 0.230843 0.50718 0.15588 0.631334 0.104771C0.755488 0.0536624 0.888551 0.0274108 1.02291 0.0275174H8.02204L12.9509 5.02873V16.9265Z" fill="#23A566"/>
<path d="M8.56445 4.89827L12.9509 9.06973V4.99956H9.06532C8.89568 5.00147 8.72845 4.95959 8.57993 4.87802L8.56445 4.89827Z" fill="#1C8F5A"/>
<path d="M12.9509 5.02066H9.05469C8.78368 5.02045 8.52383 4.91324 8.3322 4.72257C8.14056 4.5319 8.03281 4.27337 8.03259 4.00373V0L12.9509 5.02066Z" fill="#8ED1B1"/>
<path fill-rule="evenodd" clip-rule="evenodd" d="M9.83247 14.6406H3.09314V8.82665H9.83247V14.6406ZM6.88182 9.66532V10.6831H9.0042V9.66694L6.88182 9.66532ZM6.88182 11.324V12.2964H9.0042V11.3192L6.88182 11.324ZM6.88182 12.9163V13.8165H9.0042V12.9114L6.88182 12.9163ZM6.04867 13.8117V12.9114H3.92711V13.8117H6.04867ZM6.04867 12.2859V11.3192H3.92711V12.2907L6.04867 12.2859ZM6.04867 10.6936V9.66532H3.92711V10.6831L6.04867 10.6936Z" fill="white"/>
<path d="M36.0104 8.99033C36.0104 7.71491 35.0445 6.84302 33.923 6.84302C32.8016 6.84302 31.8348 7.71491 31.8348 8.99033C31.8348 10.2528 32.8016 11.1376 33.923 11.1376C35.0445 11.1376 36.0104 10.2512 36.0104 8.99033ZM37.636 8.99033C37.636 11.0307 35.9688 12.5346 33.9222 12.5346C31.8764 12.5346 30.2093 11.0307 30.2093 8.99033C30.2093 6.9354 31.8764 5.44605 33.923 5.44605C35.9688 5.44605 37.636 6.9354 37.636 8.99033ZM44.0202 8.99033C44.0202 7.71491 43.0543 6.84302 41.9328 6.84302C40.8114 6.84302 39.8455 7.71491 39.8455 8.99033C39.8455 10.2528 40.8114 11.1376 41.9328 11.1376C43.0543 11.1376 44.0202 10.2512 44.0202 8.99033ZM45.6458 8.99033C45.6458 11.0307 43.9787 12.5346 41.9328 12.5346C39.887 12.5346 38.2191 11.0307 38.2191 8.99033C38.2191 6.93702 39.887 5.44605 41.9328 5.44605C43.9787 5.44605 45.6466 6.9354 45.6466 8.99033H45.6458ZM51.8948 9.00249C51.8948 7.75462 51.025 6.84221 49.919 6.84221C48.7968 6.84221 47.8577 7.75462 47.8577 9.00249C47.8577 10.2382 48.7968 11.1376 49.9182 11.1376C51.025 11.1376 51.8948 10.2382 51.8948 9.0033V9.00249ZM53.3233 5.65997V12.0233C53.3233 14.6406 51.7108 15.7102 49.805 15.7102C49.1124 15.7215 48.4317 15.5293 47.8483 15.1577C47.2648 14.7862 46.8044 14.2518 46.5245 13.6212L47.9392 13.0573C48.1917 13.6342 48.809 14.3149 49.8042 14.3149C51.0234 14.3149 51.7792 13.5937 51.7792 12.2372V11.7267H51.7222C51.3589 12.157 50.6577 12.533 49.7733 12.533C47.9229 12.533 46.2273 10.9894 46.2273 9.0033C46.2273 7.00184 47.9229 5.44605 49.7733 5.44605C50.6561 5.44605 51.3573 5.82122 51.723 6.23853H51.78V5.66159H53.3233V5.65997ZM55.8684 1.92851H54.2827V12.3166H55.8676L55.8684 1.92851ZM58.1626 8.88013L61.4708 7.565C61.2892 7.12176 60.7411 6.81385 60.0977 6.81385C59.271 6.81385 58.1211 7.51233 58.1626 8.88013ZM62.0466 10.1547L63.3081 10.9602C62.961 11.4516 62.4987 11.8516 61.9613 12.1253C61.4239 12.3991 60.8276 12.5384 60.2239 12.5314C58.1211 12.5314 56.5509 10.9756 56.5509 8.98709C56.5509 6.87948 58.1349 5.44281 60.0423 5.44281C61.9627 5.44281 62.9025 6.90622 63.2104 7.69708L63.3782 8.0998L58.4297 10.0624C58.8084 10.7738 59.3981 11.136 60.2239 11.136C61.0522 11.136 61.6255 10.7471 62.0466 10.1556V10.1547ZM24.2078 8.06658V6.56265H29.4999C29.5512 6.82438 29.5781 7.13473 29.5781 7.4702C29.5781 8.59815 29.2564 9.99349 28.218 10.9869C27.2081 11.9941 25.9181 12.5314 24.2094 12.5314C21.0413 12.5314 18.3782 10.0599 18.3782 7.02777C18.3782 3.9956 21.0413 1.52417 24.2094 1.52417C25.9621 1.52417 27.2097 2.18213 28.148 3.04025L27.0403 4.10175C26.3676 3.49726 25.4563 3.0281 24.2078 3.0281C21.8948 3.0281 20.086 4.81239 20.086 7.02777C20.086 9.24315 21.8948 11.0274 24.2078 11.0274C25.708 11.0274 26.5623 10.4505 27.1096 9.92624C27.5542 9.50083 27.8458 8.89391 27.9615 8.06496L24.2078 8.06658ZM72.8922 10.1345C72.8922 10.9553 72.5892 11.6149 71.9841 12.1124C71.3692 12.6019 70.624 12.8466 69.7461 12.8466C68.9643 12.8466 68.2761 12.6197 67.6791 12.1651C67.0821 11.7113 66.6692 11.0906 66.4412 10.3047L67.6001 9.83386C67.6791 10.1126 67.7882 10.3662 67.9291 10.5931C68.0692 10.82 68.2321 11.0169 68.4162 11.183C68.6092 11.3402 68.8201 11.4666 69.0481 11.5622C69.2762 11.6498 69.5173 11.6935 69.7722 11.6935C70.3252 11.6935 70.7772 11.5541 71.1282 11.2746C71.4792 10.9861 71.6551 10.6061 71.6551 10.1345C71.6551 9.74149 71.5101 9.40521 71.2202 9.12647C70.9482 8.85582 70.4392 8.59328 69.6932 8.34047C68.9382 8.06982 68.4691 7.88669 68.2842 7.78946C67.2841 7.28383 66.7832 6.53672 66.7832 5.54977C66.7832 4.8602 67.0601 4.27111 67.6131 3.78168C68.1751 3.29307 68.8641 3.04835 69.6801 3.04835C70.4001 3.04835 71.0231 3.23148 71.5492 3.59855C72.0762 3.95671 72.4272 4.40643 72.6031 4.94771L71.471 5.41931C71.3644 5.06825 71.1413 4.7635 70.8382 4.55471C70.5312 4.31891 70.1541 4.20061 69.7062 4.20061C69.2322 4.20061 68.8331 4.33188 68.509 4.59361C68.1832 4.83832 68.0203 5.15677 68.0203 5.54977C68.0203 5.87389 68.1482 6.15264 68.4031 6.38844C68.6841 6.62343 69.2941 6.90379 70.2331 7.2271C71.1893 7.54961 71.8701 7.94747 72.2732 8.41826C72.6862 8.88175 72.8922 9.45383 72.8922 10.1345ZM74.1399 3.25741H75.3509V6.21827L75.298 7.10961H75.3509C75.535 6.7944 75.816 6.53267 76.1939 6.32361C76.5598 6.11904 76.9721 6.01056 77.3919 6.00841C78.1811 6.00841 78.787 6.23529 79.208 6.68906C79.6381 7.13473 79.8531 7.77244 79.8531 8.60139V12.6367H78.642V8.838C78.642 7.68493 78.1289 7.1088 77.1019 7.1088C76.61 7.1088 76.1939 7.31381 75.851 7.72464C75.5193 8.12136 75.3418 8.62344 75.3509 9.13943V12.6367H74.1399V3.25741ZM84.1719 12.8466C83.2239 12.8466 82.4429 12.5225 81.828 11.8766C81.214 11.2308 80.9069 10.414 80.9069 9.42709C80.9069 8.44905 81.205 7.63712 81.802 6.99131C82.3989 6.33577 83.162 6.00841 84.0929 6.00841C85.0491 6.00841 85.8089 6.31875 86.37 6.93864C86.941 7.54961 87.226 8.41016 87.226 9.51865L87.213 9.64992H82.144C82.1619 10.2787 82.3721 10.7852 82.776 11.1692C83.18 11.5533 83.6629 11.7462 84.2241 11.7462C84.9969 11.7462 85.6021 11.3621 86.041 10.5931L87.1209 11.1174C86.8441 11.6449 86.4247 12.085 85.9099 12.3879C85.4001 12.6934 84.821 12.8466 84.1719 12.8466ZM82.236 8.65487H85.936C85.9232 8.44381 85.8676 8.2375 85.7726 8.04839C85.6776 7.85927 85.545 7.69126 85.383 7.55447C85.058 7.25709 84.619 7.1088 84.0661 7.1088C83.61 7.1088 83.215 7.24817 82.8811 7.52773C82.5569 7.80729 82.3419 8.18327 82.236 8.65406V8.65487ZM91.2948 12.8466C90.3469 12.8466 89.565 12.5225 88.951 11.8766C88.3369 11.2308 88.029 10.414 88.029 9.42709C88.029 8.44905 88.3279 7.63712 88.9249 6.99131C89.5219 6.33577 90.285 6.00841 91.2159 6.00841C92.172 6.00841 92.931 6.31875 93.493 6.93864C94.0639 7.54961 94.3489 8.41016 94.3489 9.51865L94.3359 9.64992H89.2669C89.2849 10.2787 89.495 10.7852 89.8989 11.1692C90.3029 11.5533 90.785 11.7462 91.347 11.7462C92.1199 11.7462 92.725 11.3621 93.1639 10.5931L94.2439 11.1174C93.967 11.6451 93.5472 12.0852 93.032 12.3879C92.523 12.6934 91.9439 12.8466 91.2948 12.8466ZM89.359 8.65487H93.0589C93.0461 8.44381 92.9906 8.2375 92.8955 8.04839C92.8005 7.85927 92.6679 7.69126 92.5059 7.55447C92.1809 7.25709 91.742 7.1088 91.189 7.1088C90.7329 7.1088 90.3379 7.24817 90.004 7.52773C89.6799 7.80729 89.464 8.18327 89.359 8.65406V8.65487ZM97.8175 12.7412C97.2914 12.7412 96.8524 12.5792 96.5014 12.2567C96.1586 11.9334 95.9835 11.4836 95.9745 10.9075V7.31786H94.8425V6.21827H95.9745V4.25328H97.1856V6.21827H98.7655V7.31867H97.1856V10.5145C97.1856 10.9424 97.2694 11.2357 97.4364 11.3921C97.6025 11.5404 97.7915 11.6149 98.0024 11.6149C98.0985 11.6149 98.1905 11.6068 98.2785 11.589C98.3754 11.5622 98.4626 11.5323 98.5416 11.4974L98.9235 12.5711C98.6075 12.6845 98.2394 12.7412 97.8175 12.7412ZM104.984 10.8548C104.984 11.414 104.738 11.8856 104.247 12.2696C103.755 12.6537 103.136 12.8466 102.39 12.8466C101.741 12.8466 101.17 12.6805 100.679 12.3482C100.198 12.0215 99.8298 11.5548 99.6256 11.012L100.705 10.5542C100.863 10.9383 101.091 11.2397 101.39 11.4577C101.697 11.6676 102.03 11.7721 102.39 11.7721C102.777 11.7721 103.097 11.6895 103.351 11.5234C103.615 11.3572 103.746 11.1611 103.746 10.9334C103.746 10.5234 103.43 10.222 102.798 10.03L101.693 9.75445C100.437 9.44086 99.8096 8.83799 99.8096 7.94747C99.8096 7.36243 100.047 6.89488 100.521 6.54564C101.004 6.18748 101.618 6.00841 102.364 6.00841C102.934 6.00841 103.448 6.14373 103.904 6.41437C104.37 6.68501 104.694 7.04803 104.879 7.5018L103.799 7.94747C103.674 7.67539 103.461 7.45359 103.193 7.31867C102.912 7.15932 102.594 7.07788 102.272 7.08287C101.956 7.08287 101.671 7.16147 101.416 7.31786C101.17 7.47587 101.047 7.66791 101.047 7.8948C101.047 8.26187 101.394 8.5236 102.088 8.6808L103.062 8.92956C104.343 9.24396 104.984 9.88572 104.984 10.8548Z" fill="#787879"/>
</svg>
