<svg width="28" height="25" viewBox="0 0 28 25" fill="none" xmlns="http://www.w3.org/2000/svg">
<path d="M14.4443 13.2222L10.6665 17M13.6888 7.93335C13.6888 11.2716 16.395 13.9778 19.7332 13.9778C23.0715 13.9778 25.7777 11.2716 25.7777 7.93335C25.7777 4.5951 23.0715 1.88892 19.7332 1.88892C16.395 1.88892 13.6888 4.5951 13.6888 7.93335Z" stroke="#2094FF" stroke-width="2.75" stroke-linecap="round" stroke-linejoin="round"/>
<path fill-rule="evenodd" clip-rule="evenodd" d="M14.2214 1H6C2.68629 1 0 3.68629 0 7V19C0 22.3137 2.68629 25 6 25H18C21.3137 25 24 22.3137 24 19V15.8108C23.2319 16.2551 22.3912 16.5878 21.5 16.7867V19C21.5 20.933 19.933 22.5 18 22.5H6C4.067 22.5 2.5 20.933 2.5 19V7C2.5 5.067 4.067 3.5 6 3.5H11.9547C12.545 2.52902 13.3161 1.6801 14.2214 1Z" fill="white"/>
</svg>
