<svg width="163" height="29" viewBox="0 0 163 29" fill="none" xmlns="http://www.w3.org/2000/svg">
<path d="M44.7746 7.738C46.168 7.738 47.3903 8.01033 48.4416 8.555C49.5056 9.09967 50.3226 9.87867 50.8926 10.892C51.4753 11.8927 51.7666 13.058 51.7666 14.388C51.7666 15.718 51.4753 16.8833 50.8926 17.884C50.3226 18.872 49.5056 19.6383 48.4416 20.183C47.3903 20.7277 46.168 21 44.7746 21H40.1386V7.738H44.7746ZM44.6796 18.739C46.073 18.739 47.1496 18.359 47.9096 17.599C48.6696 16.839 49.0496 15.7687 49.0496 14.388C49.0496 13.0073 48.6696 11.9307 47.9096 11.158C47.1496 10.3727 46.073 9.98 44.6796 9.98H42.7986V18.739H44.6796ZM63.5428 15.509C63.5428 15.889 63.5174 16.231 63.4668 16.535H55.7718C55.8351 17.295 56.1011 17.8903 56.5698 18.321C57.0384 18.7517 57.6148 18.967 58.2988 18.967C59.2868 18.967 59.9898 18.5427 60.4078 17.694H63.2768C62.9728 18.7073 62.3901 19.5433 61.5288 20.202C60.6674 20.848 59.6098 21.171 58.3558 21.171C57.3424 21.171 56.4304 20.9493 55.6198 20.506C54.8218 20.05 54.1948 19.4103 53.7388 18.587C53.2954 17.7637 53.0738 16.8137 53.0738 15.737C53.0738 14.6477 53.2954 13.6913 53.7388 12.868C54.1821 12.0447 54.8028 11.4113 55.6008 10.968C56.3988 10.5247 57.3171 10.303 58.3558 10.303C59.3564 10.303 60.2494 10.5183 61.0348 10.949C61.8328 11.3797 62.4471 11.994 62.8778 12.792C63.3211 13.5773 63.5428 14.483 63.5428 15.509ZM60.7878 14.749C60.7751 14.065 60.5281 13.5203 60.0468 13.115C59.5654 12.697 58.9764 12.488 58.2798 12.488C57.6211 12.488 57.0638 12.6907 56.6078 13.096C56.1644 13.4887 55.8921 14.0397 55.7908 14.749H60.7878ZM75.2693 15.509C75.2693 15.889 75.244 16.231 75.1933 16.535H67.4983C67.5617 17.295 67.8277 17.8903 68.2963 18.321C68.765 18.7517 69.3413 18.967 70.0253 18.967C71.0133 18.967 71.7163 18.5427 72.1343 17.694H75.0033C74.6993 18.7073 74.1167 19.5433 73.2553 20.202C72.394 20.848 71.3363 21.171 70.0823 21.171C69.069 21.171 68.157 20.9493 67.3463 20.506C66.5483 20.05 65.9213 19.4103 65.4653 18.587C65.022 17.7637 64.8003 16.8137 64.8003 15.737C64.8003 14.6477 65.022 13.6913 65.4653 12.868C65.9087 12.0447 66.5293 11.4113 67.3273 10.968C68.1253 10.5247 69.0437 10.303 70.0823 10.303C71.083 10.303 71.976 10.5183 72.7613 10.949C73.5593 11.3797 74.1737 11.994 74.6043 12.792C75.0477 13.5773 75.2693 14.483 75.2693 15.509ZM72.5143 14.749C72.5017 14.065 72.2547 13.5203 71.7733 13.115C71.292 12.697 70.703 12.488 70.0063 12.488C69.3477 12.488 68.7903 12.6907 68.3343 13.096C67.891 13.4887 67.6187 14.0397 67.5173 14.749H72.5143ZM79.8709 11.994C80.2129 11.5127 80.6816 11.1137 81.2769 10.797C81.8849 10.4677 82.5752 10.303 83.3479 10.303C84.2472 10.303 85.0579 10.5247 85.7799 10.968C86.5146 11.4113 87.0909 12.0447 87.5089 12.868C87.9396 13.6787 88.1549 14.6223 88.1549 15.699C88.1549 16.7757 87.9396 17.732 87.5089 18.568C87.0909 19.3913 86.5146 20.031 85.7799 20.487C85.0579 20.943 84.2472 21.171 83.3479 21.171C82.5752 21.171 81.8912 21.0127 81.2959 20.696C80.7132 20.3793 80.2382 19.9803 79.8709 19.499V26.016H77.2109V10.474H79.8709V11.994ZM85.4379 15.699C85.4379 15.0657 85.3049 14.521 85.0389 14.065C84.7856 13.5963 84.4436 13.2417 84.0129 13.001C83.5949 12.7603 83.1389 12.64 82.6449 12.64C82.1636 12.64 81.7076 12.7667 81.2769 13.02C80.8589 13.2607 80.5169 13.6153 80.2509 14.084C79.9976 14.5527 79.8709 15.1037 79.8709 15.737C79.8709 16.3703 79.9976 16.9213 80.2509 17.39C80.5169 17.8587 80.8589 18.2197 81.2769 18.473C81.7076 18.7137 82.1636 18.834 82.6449 18.834C83.1389 18.834 83.5949 18.7073 84.0129 18.454C84.4436 18.2007 84.7856 17.8397 85.0389 17.371C85.3049 16.9023 85.4379 16.345 85.4379 15.699ZM94.6669 21.133C93.7422 21.133 92.9062 20.9747 92.1589 20.658C91.4242 20.3413 90.8415 19.8853 90.4109 19.29C89.9802 18.6947 89.7585 17.9917 89.7459 17.181H92.5959C92.6339 17.7257 92.8239 18.1563 93.1659 18.473C93.5205 18.7897 94.0019 18.948 94.6099 18.948C95.2305 18.948 95.7182 18.8023 96.0729 18.511C96.4275 18.207 96.6049 17.8143 96.6049 17.333C96.6049 16.9403 96.4845 16.6173 96.2439 16.364C96.0032 16.1107 95.6992 15.9143 95.3319 15.775C94.9772 15.623 94.4832 15.4583 93.8499 15.281C92.9885 15.0277 92.2855 14.7807 91.7409 14.54C91.2089 14.2867 90.7465 13.913 90.3539 13.419C89.9739 12.9123 89.7839 12.241 89.7839 11.405C89.7839 10.6197 89.9802 9.93567 90.3729 9.353C90.7655 8.77033 91.3165 8.327 92.0259 8.023C92.7352 7.70633 93.5459 7.548 94.4579 7.548C95.8259 7.548 96.9342 7.88367 97.7829 8.555C98.6442 9.21367 99.1192 10.1383 99.2079 11.329H96.2819C96.2565 10.873 96.0602 10.4993 95.6929 10.208C95.3382 9.904 94.8632 9.752 94.2679 9.752C93.7485 9.752 93.3305 9.885 93.0139 10.151C92.7099 10.417 92.5579 10.8033 92.5579 11.31C92.5579 11.6647 92.6719 11.9623 92.8999 12.203C93.1405 12.431 93.4319 12.621 93.7739 12.773C94.1285 12.9123 94.6225 13.077 95.2559 13.267C96.1172 13.5203 96.8202 13.7737 97.3649 14.027C97.9095 14.2803 98.3782 14.6603 98.7709 15.167C99.1635 15.6737 99.3599 16.3387 99.3599 17.162C99.3599 17.8713 99.1762 18.53 98.8089 19.138C98.4415 19.746 97.9032 20.2337 97.1939 20.601C96.4845 20.9557 95.6422 21.133 94.6669 21.133ZM111.451 15.509C111.451 15.889 111.426 16.231 111.375 16.535H103.68C103.743 17.295 104.009 17.8903 104.478 18.321C104.947 18.7517 105.523 18.967 106.207 18.967C107.195 18.967 107.898 18.5427 108.316 17.694H111.185C110.881 18.7073 110.298 19.5433 109.437 20.202C108.576 20.848 107.518 21.171 106.264 21.171C105.251 21.171 104.339 20.9493 103.528 20.506C102.73 20.05 102.103 19.4103 101.647 18.587C101.204 17.7637 100.982 16.8137 100.982 15.737C100.982 14.6477 101.204 13.6913 101.647 12.868C102.09 12.0447 102.711 11.4113 103.509 10.968C104.307 10.5247 105.225 10.303 106.264 10.303C107.265 10.303 108.158 10.5183 108.943 10.949C109.741 11.3797 110.355 11.994 110.786 12.792C111.229 13.5773 111.451 14.483 111.451 15.509ZM108.696 14.749C108.683 14.065 108.436 13.5203 107.955 13.115C107.474 12.697 106.885 12.488 106.188 12.488C105.529 12.488 104.972 12.6907 104.516 13.096C104.073 13.4887 103.8 14.0397 103.699 14.749H108.696ZM112.709 15.699C112.709 14.635 112.918 13.6913 113.336 12.868C113.766 12.0447 114.343 11.4113 115.065 10.968C115.799 10.5247 116.616 10.303 117.516 10.303C118.301 10.303 118.985 10.4613 119.568 10.778C120.163 11.0947 120.638 11.4937 120.993 11.975V10.474H123.672V21H120.993V19.461C120.651 19.955 120.176 20.3667 119.568 20.696C118.972 21.0127 118.282 21.171 117.497 21.171C116.61 21.171 115.799 20.943 115.065 20.487C114.343 20.031 113.766 19.3913 113.336 18.568C112.918 17.732 112.709 16.7757 112.709 15.699ZM120.993 15.737C120.993 15.091 120.866 14.54 120.613 14.084C120.359 13.6153 120.017 13.2607 119.587 13.02C119.156 12.7667 118.694 12.64 118.2 12.64C117.706 12.64 117.25 12.7603 116.832 13.001C116.414 13.2417 116.072 13.5963 115.806 14.065C115.552 14.521 115.426 15.0657 115.426 15.699C115.426 16.3323 115.552 16.8897 115.806 17.371C116.072 17.8397 116.414 18.2007 116.832 18.454C117.262 18.7073 117.718 18.834 118.2 18.834C118.694 18.834 119.156 18.7137 119.587 18.473C120.017 18.2197 120.359 17.865 120.613 17.409C120.866 16.9403 120.993 16.383 120.993 15.737ZM128.929 12.108C129.271 11.5507 129.715 11.1137 130.259 10.797C130.817 10.4803 131.45 10.322 132.159 10.322V13.115H131.456C130.62 13.115 129.987 13.3113 129.556 13.704C129.138 14.0967 128.929 14.7807 128.929 15.756V21H126.269V10.474H128.929V12.108ZM133.267 15.737C133.267 14.6477 133.489 13.6977 133.932 12.887C134.375 12.0637 134.99 11.4303 135.775 10.987C136.56 10.531 137.46 10.303 138.473 10.303C139.778 10.303 140.854 10.6323 141.703 11.291C142.564 11.937 143.141 12.849 143.432 14.027H140.563C140.411 13.571 140.151 13.2163 139.784 12.963C139.429 12.697 138.986 12.564 138.454 12.564C137.694 12.564 137.092 12.8427 136.649 13.4C136.206 13.9447 135.984 14.7237 135.984 15.737C135.984 16.7377 136.206 17.5167 136.649 18.074C137.092 18.6187 137.694 18.891 138.454 18.891C139.531 18.891 140.234 18.4097 140.563 17.447H143.432C143.141 18.587 142.564 19.4927 141.703 20.164C140.842 20.8353 139.765 21.171 138.473 21.171C137.46 21.171 136.56 20.9493 135.775 20.506C134.99 20.05 134.375 19.4167 133.932 18.606C133.489 17.7827 133.267 16.8263 133.267 15.737ZM151.309 10.322C152.107 10.322 152.816 10.4993 153.437 10.854C154.057 11.196 154.539 11.709 154.881 12.393C155.235 13.0643 155.413 13.875 155.413 14.825V21H152.753V15.186C152.753 14.35 152.544 13.7103 152.126 13.267C151.708 12.811 151.138 12.583 150.416 12.583C149.681 12.583 149.098 12.811 148.668 13.267C148.25 13.7103 148.041 14.35 148.041 15.186V21H145.381V6.94H148.041V11.785C148.383 11.329 148.839 10.9743 149.409 10.721C149.979 10.455 150.612 10.322 151.309 10.322Z" fill="black"/>
<path d="M14.4443 14.2222L10.6665 18M13.6888 8.93335C13.6888 12.2716 16.395 14.9778 19.7332 14.9778C23.0715 14.9778 25.7777 12.2716 25.7777 8.93335C25.7777 5.5951 23.0715 2.88892 19.7332 2.88892C16.395 2.88892 13.6888 5.5951 13.6888 8.93335Z" stroke="#2094FF" stroke-width="2.75" stroke-linecap="round" stroke-linejoin="round"/>
<path fill-rule="evenodd" clip-rule="evenodd" d="M14.2214 2H6C2.68629 2 0 4.68629 0 8V20C0 23.3137 2.68629 26 6 26H18C21.3137 26 24 23.3137 24 20V16.8108C23.2319 17.2551 22.3912 17.5878 21.5 17.7867V20C21.5 21.933 19.933 23.5 18 23.5H6C4.067 23.5 2.5 21.933 2.5 20V8C2.5 6.067 4.067 4.5 6 4.5H11.9547C12.545 3.52902 13.3161 2.6801 14.2214 2Z" fill="black"/>
<circle cx="161" cy="19" r="2" fill="#2094FF"/>
</svg>
