<svg width="375" height="403" viewBox="0 0 375 403" fill="none" xmlns="http://www.w3.org/2000/svg">
<path d="M318.28 398.364C331.248 404.545 352.275 404.545 365.244 398.364C378.212 392.183 378.212 382.162 365.244 375.979C352.275 369.799 331.248 369.799 318.28 375.979C305.31 382.162 305.31 392.183 318.28 398.364Z" fill="#E7E7E5"/>
<path d="M267.814 297.828L267.462 297.739C263.416 295.498 261.174 288.852 261.08 288.57C260.956 288.191 261.16 287.782 261.54 287.657C261.917 287.527 262.329 287.738 262.453 288.115C262.474 288.178 264.611 294.508 268.163 296.474C268.512 296.666 268.639 297.105 268.445 297.455C268.314 297.694 268.067 297.828 267.814 297.828" fill="white"/>
<path d="M90.737 231.842C84.155 237.016 82.1503 238.144 80.9597 231.232C79.7697 224.319 83.6193 213.778 90.2013 208.604C96.7833 203.429 99.3091 203.043 100.499 209.955C101.69 216.868 97.319 226.666 90.737 231.842ZM116.943 202.142L115.391 193.131L107.351 198.422C106.545 196.882 105.511 195.645 104.294 194.711L108.141 184.304L100.978 182.703L95.6853 192.786C93.9318 193.056 92.0806 193.647 90.1725 194.581L87.8821 186.98L79.3028 193.725L79.8646 202.686C78.128 204.617 76.5388 206.73 75.1213 208.954L68.0329 208.604L63.0632 219.744L69.1501 222.341C68.5077 224.737 68.0939 227.114 67.9482 229.401L60.2207 236.507L61.7726 245.518L69.8123 240.227C70.6174 241.768 71.6528 243.005 72.8698 243.938L69.0219 254.345L76.186 255.947L83.7566 248.566C85.5105 248.297 85.0831 245.002 86.9913 244.068L89.2811 251.669L97.861 244.924L97.6397 241.401C99.3763 239.468 105.933 235.205 107.351 232.984L109.131 230.045L114.099 218.906L111.784 214.71L109.216 209.249L116.943 202.142" fill="#DADAD8"/>
<path d="M100.978 182.703L110.35 188.106L105.058 198.191L95.6851 192.786L100.978 182.703Z" fill="#F2F3F1"/>
<path d="M124.763 198.537L116.723 203.828L107.351 198.422L115.391 193.131L124.763 198.537" fill="#F2F3F1"/>
<path d="M123.473 224.309L117.386 221.714L108.014 216.308L114.099 218.905L123.473 224.309" fill="#DADAD8"/>
<path d="M69.0215 254.346L78.3947 259.751L82.2414 249.344L72.8694 243.938L69.0215 254.346Z" fill="#DADAD8"/>
<path d="M98.6542 257.074L89.281 251.669L86.9912 244.068L96.3632 249.474L98.6542 257.074" fill="#DADAD8"/>
<path d="M100.11 237.247C93.5282 242.421 87.2267 241.012 86.0367 234.099C84.8462 227.187 89.2174 217.388 95.7988 212.213C102.381 207.039 108.681 208.446 109.872 215.359C111.061 222.273 106.692 232.072 100.11 237.247V237.247ZM126.316 207.548L124.764 198.537L116.724 203.828C115.919 202.287 114.883 201.05 113.666 200.116L117.514 189.709L110.35 188.106L105.058 198.191C103.304 198.461 101.453 199.052 99.5446 199.986L97.2547 192.386L88.6754 199.131L89.237 208.089C87.5012 210.022 85.912 212.135 84.4938 214.359L77.4054 214.009L72.4363 225.149L78.5227 227.745C77.8797 230.142 77.467 232.518 77.3207 234.806L69.5928 241.912L71.1447 250.922L79.1855 245.632C79.9905 247.173 81.0253 248.41 82.2419 249.344L78.3951 259.751L85.5579 261.352L90.8507 251.269C92.604 250.998 94.4552 250.406 96.3633 249.474L98.6543 257.074L107.233 250.329L106.671 241.369C108.408 239.438 109.998 237.324 111.416 235.101L118.503 235.451L123.473 224.309L117.386 221.714C118.029 219.317 118.442 216.94 118.587 214.654L126.316 207.548" fill="#E7E7E5"/>
<path d="M97.2546 192.386L87.882 186.981L79.3027 193.725L88.6753 199.131L97.2546 192.386" fill="#F2F3F1"/>
<path d="M79.3027 193.725L79.8645 202.686L89.2369 208.09L88.6753 199.131L79.3027 193.725Z" fill="#DADAD8"/>
<path d="M84.4941 214.359L75.1216 208.954L68.0332 208.604L77.4057 214.009L84.4941 214.359Z" fill="#F2F3F1"/>
<path d="M68.0332 208.604L63.0635 219.744L72.4365 225.149L77.4056 214.009L68.0332 208.604" fill="#DADAD8"/>
<path d="M77.3207 234.806L67.9482 229.401L60.2207 236.507L69.5927 241.912L77.3207 234.806" fill="#F2F3F1"/>
<path d="M71.1446 250.922L61.7726 245.518L60.2207 236.507L69.5927 241.912L71.1446 250.922" fill="#DADAD8"/>
<path d="M110.35 188.106L100.978 182.703L108.141 184.304L117.514 189.709L110.35 188.106Z" fill="#F2F3F1"/>
<path d="M37.4754 194.874C28.5336 200.037 22.9757 196.376 22.9757 186.05C22.9757 175.725 30.365 163.076 39.3073 157.914C48.2491 152.752 53.666 156.508 53.666 166.831C53.666 177.157 46.4171 189.712 37.4754 194.874V194.874ZM74.9515 161.273V147.813L64.2404 152.642C63.5946 150.156 62.6111 148.026 61.3471 146.267L68.0956 132.662L59.8539 127.902L51.4444 140.551C49.2895 140.334 46.9529 140.548 44.4774 141.232L43.3031 129.541L31.6482 136.272L30.474 149.318C27.9978 151.491 25.6606 153.977 23.5064 156.68L15.0969 153.743L6.85515 168.018L13.6037 173.832C12.3402 177.049 11.3563 180.317 10.7104 183.548L0 191.088V204.546L10.7104 199.717C11.3563 202.203 12.3402 204.333 13.6037 206.092L6.85515 219.698L15.0969 224.457L23.5064 211.808C25.6606 212.025 27.9978 211.811 30.474 211.127L31.6482 222.818L43.3031 216.089L44.4774 203.043C47.9505 201.884 51.6669 199.196 53.8212 196.492L59.8539 198.616L68.0956 184.342L63.0384 179.984C64.3019 176.767 64.4368 171.624 64.2404 168.813L74.9515 161.273" fill="#DADAD8"/>
<path d="M69.2264 133.308L59.8534 127.902L51.4438 140.551L60.8159 145.955L69.2264 133.308" fill="#F2F3F1"/>
<path d="M84.3237 153.218L74.9513 147.813L64.2402 152.642L73.6127 158.047L84.3237 153.218" fill="#F2F3F1"/>
<path d="M41.0203 228.222L31.6479 222.818L30.4736 211.127L39.8461 216.533L41.0203 228.222" fill="#DADAD8"/>
<path d="M6.85498 219.698L16.2276 225.104L22.9755 211.497L13.6035 206.092L6.85498 219.698" fill="#DADAD8"/>
<path d="M46.8482 200.28C37.9064 205.442 30.657 201.257 30.657 190.932C30.657 180.607 37.9064 168.052 46.8482 162.89C55.7894 157.728 63.0381 161.912 63.0381 172.236C63.0381 182.562 55.7894 195.117 46.8482 200.28ZM84.3235 166.678V153.219L73.6125 158.047C72.9672 155.561 71.9827 153.431 70.7197 151.672L77.4678 138.065L69.2265 133.308L60.816 145.955C58.6623 145.739 56.3251 145.953 53.8496 146.637L52.6753 134.948L41.0203 141.676L39.846 154.722C37.3706 156.897 35.0334 159.382 32.879 162.085L24.4685 159.148L16.2274 173.423L22.9753 179.237C21.7124 182.454 20.7284 185.722 20.0831 188.953L9.37207 196.492V209.95L20.0831 205.123C20.7284 207.607 21.7124 209.739 22.9753 211.497L16.2274 225.104L24.4685 229.862L32.879 217.215C35.0334 217.429 37.3706 217.216 39.846 216.533L41.0203 228.222L52.6753 221.493L53.8496 208.447C56.3251 206.273 58.6623 203.787 60.816 201.085L69.2265 204.021L77.4678 189.747L70.7197 183.933C71.9827 180.715 72.9672 177.448 73.6125 174.216L84.3235 166.678" fill="#E7E7E5"/>
<path d="M23.5062 156.68L32.8792 162.085L24.4687 159.148L15.0967 153.743L23.5062 156.68Z" fill="#ECEDEB"/>
<path d="M16.2276 173.423L6.85498 168.018L15.0967 153.743L24.4687 159.148L16.2276 173.423" fill="#F2F3F1"/>
<path d="M6.85498 168.018L16.2276 173.423L22.9755 179.237L13.6035 173.832L6.85498 168.018Z" fill="#DADAD8"/>
<path d="M10.7104 183.548L20.0835 188.953L9.37246 196.492L0 191.088L10.7104 183.548Z" fill="#F2F3F1"/>
<path d="M0 191.088L9.37245 196.492V209.95L0 204.546V191.088" fill="#DADAD8"/>
<path d="M52.6755 134.948L43.3029 129.541L31.6479 136.272L41.0204 141.675L52.6755 134.948Z" fill="#F2F3F1"/>
<path d="M115.364 392.996L251.252 314.542C252.634 313.743 252.635 312.448 251.253 311.649L238.681 304.375C237.3 303.576 235.06 303.574 233.676 304.372L97.7526 382.828C96.3696 383.626 96.3696 384.921 97.7526 385.718L110.356 392.996C111.74 393.794 113.981 393.794 115.364 392.996" fill="#DADAD8"/>
<path d="M247.494 11.6641L124.986 82.3937C121.531 84.3895 118.729 89.2426 118.729 93.2329V383.825C118.729 387.817 121.531 389.434 124.986 387.438L247.496 316.71C250.953 314.714 253.753 309.86 253.753 305.871L253.752 15.2772C253.752 11.2869 250.951 9.66826 247.494 11.6641" fill="#32515C"/>
<path d="M124.986 82.3936L247.494 11.6641C250.585 9.88067 253.145 10.9906 253.655 14.0979C253.185 10.3735 250.617 6.24158 247.494 4.43794L242.399 1.49692C238.942 -0.498946 233.338 -0.498946 229.882 1.49692L107.375 72.2264C105.647 73.2236 104.082 74.9348 102.949 76.8974L120.562 87.0646C121.694 85.1034 123.259 83.3923 124.986 82.3936" fill="#263D46"/>
<path d="M101.12 373.656C101.12 377.648 103.921 382.501 107.378 384.495L112.474 387.438C115.598 389.241 120.464 389.399 123.926 387.941C120.976 389.06 118.729 387.398 118.729 383.825V93.2327C118.729 91.2368 119.43 89.0256 120.563 87.0644L102.95 76.8972C101.818 78.8584 101.117 81.0696 101.117 83.064L101.12 373.656" fill="#17272E"/>
<path d="M128.355 121.123L244.126 54.281C246.202 53.0829 247.882 54.0541 247.882 56.4488L247.884 271.477C247.884 273.872 246.202 276.784 244.128 277.981L128.356 344.823C126.282 346.019 124.6 345.048 124.6 342.655V127.626C124.6 125.232 126.281 122.319 128.355 121.123Z" fill="white"/>
<path d="M186.241 58.0531C185.025 58.7555 184.04 60.4623 184.04 61.8656C184.04 63.2704 185.025 63.8384 186.241 63.136C187.458 62.4351 188.443 60.7282 188.443 59.3235C188.443 57.9201 187.458 57.3507 186.241 58.0531Z" fill="#263D46"/>
<path d="M186.244 321.726C181.443 324.498 177.552 331.239 177.552 336.783C177.552 342.325 181.443 344.573 186.244 341.801C191.043 339.03 194.935 332.289 194.935 326.746C194.935 321.203 191.043 318.956 186.244 321.726Z" fill="#263D46"/>
<path d="M165.448 80.4209C163.016 81.8257 161.046 85.2393 161.046 88.0474C161.046 90.8555 163.016 91.9929 165.45 90.5896C167.88 89.1863 169.85 85.7712 169.85 82.9631C169.85 80.155 167.879 79.0176 165.448 80.4209Z" fill="#263D46"/>
<path d="M176.214 79.4685C176.214 81.34 177.614 82.0496 179.343 81.051L208.31 64.3282C210.037 63.331 211.438 61.0042 211.438 59.1326C211.437 57.261 210.037 56.5514 208.308 57.5501L179.343 74.2728C177.614 75.27 176.214 77.5969 176.214 79.4685" fill="#263D46"/>
<path d="M110.862 130.427C112.806 131.55 114.384 134.282 114.384 136.529C114.384 138.775 112.806 139.685 110.862 138.561C108.915 137.438 107.338 134.708 107.338 132.461C107.338 130.215 108.915 129.304 110.862 130.427" fill="#263D46"/>
<path d="M110.862 157.563C112.806 158.687 114.384 161.419 114.384 163.665C114.384 165.91 112.806 166.821 110.862 165.698C108.915 164.575 107.338 161.844 107.338 159.598C107.338 157.35 108.915 156.441 110.862 157.563Z" fill="#263D46"/>
<path d="M109.774 130.971C111.719 132.094 113.296 134.827 113.296 137.072C113.296 139.318 111.719 140.229 109.774 139.106C107.827 137.983 106.252 135.251 106.252 133.006C106.252 130.758 107.829 129.848 109.774 130.971Z" fill="#32515C"/>
<path d="M109.774 158.108C111.719 159.231 113.296 161.962 113.296 164.209C113.296 166.455 111.719 167.366 109.774 166.243C107.827 165.118 106.252 162.387 106.252 160.141C106.252 157.895 107.829 156.985 109.774 158.108Z" fill="#32515C"/>
<path d="M271.366 63.2486C271.366 60.8538 269.686 59.8841 267.61 61.0807L253.753 69.0801L151.839 127.921C149.765 129.119 148.084 132.03 148.084 134.425L148.085 349.453C148.085 351.848 149.766 352.818 151.84 351.621L253.789 292.758L267.612 284.781C269.686 283.582 271.368 280.67 271.368 278.277L271.366 63.2486" fill="white"/>
<path d="M271.366 63.2487H272.089C272.087 62.2818 271.849 61.4451 271.353 60.8207C270.862 60.1935 270.096 59.838 269.288 59.8452C268.625 59.8452 267.937 60.0591 267.249 60.4536L253.392 68.4544L151.477 127.295C150.295 127.982 149.292 129.096 148.558 130.364C147.828 131.633 147.364 133.059 147.361 134.425L147.363 349.453C147.363 350.419 147.601 351.257 148.097 351.881C148.588 352.509 149.356 352.864 150.162 352.857C150.826 352.855 151.513 352.643 152.2 352.247L254.151 293.384L267.973 285.406C269.154 284.72 270.158 283.606 270.892 282.338C271.624 281.069 272.086 279.643 272.09 278.277L272.089 63.2487H271.366H270.644L270.645 278.277C270.648 279.305 270.271 280.532 269.641 281.616C269.016 282.702 268.142 283.643 267.25 284.155L253.428 292.132L151.479 350.995C150.96 351.294 150.509 351.412 150.162 351.412C149.739 351.403 149.466 351.268 149.227 350.979C148.992 350.689 148.808 350.186 148.808 349.453L148.807 134.425C148.804 133.397 149.181 132.17 149.81 131.086C150.434 129.999 151.308 129.059 152.2 128.547L254.115 69.706L267.971 61.7066C268.49 61.406 268.941 61.289 269.288 61.2904C269.712 61.2976 269.985 61.4335 270.225 61.7211C270.459 62.013 270.644 62.5159 270.644 63.2487H271.366" fill="#2094FF"/>
<path d="M150.161 352.858C149.679 352.858 149.227 352.742 148.824 352.51C147.882 351.965 147.363 350.88 147.363 349.453L147.361 134.425C147.361 131.761 149.169 128.628 151.477 127.295L253.392 68.4544L254.115 69.706L152.2 128.547C150.36 129.609 148.807 132.3 148.807 134.425L148.808 349.453C148.808 350.329 149.077 350.987 149.547 351.258C150.016 351.529 150.72 351.432 151.479 350.995L253.428 292.134L254.151 293.384L152.2 352.246C151.495 352.654 150.801 352.858 150.161 352.858" fill="#2094FF"/>
<path d="M150.161 352.858V352.135C149.795 352.135 149.476 352.052 149.184 351.884H149.185C148.846 351.686 148.585 351.401 148.392 351.001C148.2 350.6 148.085 350.079 148.085 349.453L148.084 134.425C148.081 133.255 148.491 131.91 149.179 130.722C149.864 129.531 150.824 128.504 151.839 127.921L253.127 69.4414L151.839 127.921C150.769 128.544 149.86 129.567 149.188 130.726C148.52 131.888 148.088 133.188 148.084 134.425L148.085 349.453C148.085 349.965 148.162 350.436 148.332 350.857C148.502 351.273 148.779 351.648 149.185 351.884C149.487 352.059 149.827 352.133 150.161 352.131C150.724 352.13 151.284 351.939 151.839 351.622L151.84 351.621L253.165 293.121L253.526 293.745L254.151 293.384L253.789 292.758L151.84 351.619L151.839 351.621C151.22 351.98 150.646 352.137 150.161 352.135V352.858V353.581C150.957 353.581 151.771 353.329 152.563 352.871L255.139 293.648L253.693 291.147L151.117 350.369C150.723 350.597 150.375 350.689 150.161 350.686L149.906 350.633H149.908C149.844 350.596 149.752 350.508 149.669 350.308C149.588 350.112 149.529 349.817 149.531 349.453L149.529 134.425C149.525 133.539 149.87 132.429 150.44 131.449C151.003 130.466 151.791 129.614 152.561 129.173L255.102 69.9718L253.656 67.4672L151.116 126.67C149.821 127.42 148.724 128.625 147.928 129.999C147.136 131.377 146.642 132.929 146.639 134.425L146.64 349.453C146.64 350.254 146.785 350.988 147.088 351.624C147.389 352.258 147.858 352.789 148.461 353.136H148.463C148.978 353.435 149.564 353.582 150.161 353.581V352.858" fill="#2094FF"/>
<path d="M254.151 293.384L253.428 292.134L267.25 284.155C269.09 283.091 270.645 280.4 270.645 278.277L270.644 63.2486C270.644 62.3728 270.374 61.7152 269.905 61.4435C269.438 61.1733 268.732 61.2672 267.972 61.7066L254.115 69.7059L253.392 68.4543L267.249 60.4536C268.483 59.7425 269.684 59.6471 270.628 60.192C271.569 60.7354 272.089 61.8222 272.089 63.2486L272.09 278.277C272.09 280.941 270.282 284.072 267.973 285.405L254.151 293.384" fill="#2094FF"/>
<path d="M254.151 293.384L254.777 293.023L254.417 292.398L267.612 284.781C268.681 284.158 269.591 283.133 270.264 281.974C270.932 280.812 271.364 279.514 271.368 278.277L271.367 63.2486C271.365 62.7355 271.29 62.2644 271.12 61.8453C270.949 61.4291 270.672 61.0533 270.267 60.8178C269.965 60.6429 269.624 60.5692 269.29 60.5692C268.728 60.5721 268.167 60.7614 267.611 61.0808L254.379 68.7188L267.611 61.0808C268.231 60.7223 268.804 60.5648 269.29 60.5648C269.656 60.5663 269.973 60.6501 270.267 60.8178L270.274 60.8221L270.267 60.8178C270.605 61.0143 270.865 61.299 271.059 61.7008C271.251 62.1011 271.367 62.6214 271.367 63.2486L271.368 278.277C271.37 279.445 270.961 280.79 270.271 281.978C269.586 283.169 268.627 284.197 267.612 284.779L253.791 292.758L254.151 293.384L254.777 293.023L254.151 293.384L254.512 294.01L268.335 286.031C269.63 285.281 270.726 284.075 271.523 282.701C272.316 281.324 272.81 279.771 272.813 278.277L272.812 63.2486C272.81 62.4479 272.666 61.7124 272.364 61.0779C272.062 60.4434 271.592 59.913 270.989 59.5662C270.472 59.267 269.887 59.1182 269.29 59.1196C268.492 59.1196 267.678 59.3725 266.888 59.8278L252.405 68.1899L253.851 70.6944L268.333 62.3324C268.728 62.1026 269.076 62.013 269.29 62.0144L269.543 62.0693C269.606 62.1054 269.699 62.1936 269.781 62.393C269.862 62.5896 269.921 62.8844 269.921 63.2486L269.923 278.277C269.926 279.163 269.582 280.271 269.012 281.251C268.447 282.236 267.66 283.088 266.889 283.529L252.441 291.869L253.888 294.371L254.512 294.01L254.151 293.384" fill="#2094FF"/>
<path d="M209.725 113.217C222.694 105.73 233.207 111.8 233.207 126.775C233.207 141.751 222.694 159.96 209.725 167.448C196.757 174.936 186.243 168.866 186.243 153.891C186.243 138.915 196.757 120.705 209.725 113.217Z" fill="#2094FF"/>
<path d="M209.724 125.003C213.931 122.574 217.344 124.544 217.344 129.401C217.344 134.26 213.931 140.168 209.724 142.597C205.517 145.025 202.106 143.057 202.106 138.198C202.106 133.339 205.517 127.433 209.724 125.003" fill="#2094FF"/>
<path d="M224.574 150.909C224.574 142.927 218.97 139.691 212.059 143.683L207.736 146.177C200.825 150.167 195.22 159.874 195.22 167.856V170.003C199.216 171.33 204.246 170.612 209.725 167.448C215.359 164.195 220.528 158.915 224.574 152.76V150.909" fill="#2094FF"/>
<path d="M206.322 143.637C203.822 143.637 202.106 141.645 202.106 138.198C202.106 133.339 205.517 127.433 209.724 125.003C210.947 124.297 212.103 123.963 213.128 123.963C215.627 123.963 217.344 125.956 217.344 129.401C217.344 134.26 213.931 140.168 209.724 142.597C208.502 143.303 207.345 143.637 206.322 143.637" fill="#E9F5FF"/>
<path d="M199.28 170.636C197.838 170.636 196.478 170.421 195.22 170.003V167.856C195.22 159.874 200.825 150.168 207.736 146.177L212.059 143.683C214.066 142.522 215.965 141.973 217.647 141.973C221.753 141.973 224.574 145.247 224.574 150.909V152.76C220.528 158.916 215.359 164.195 209.725 167.448C205.97 169.616 202.425 170.636 199.28 170.636" fill="#E9F5FF"/>
<path d="M164.289 200.473L194.506 183.028C195.889 182.228 197.009 182.876 197.009 184.473V185.47C197.009 187.067 195.889 189.008 194.506 189.806L164.289 207.251C162.908 208.05 161.786 207.403 161.786 205.806V204.809C161.786 203.212 162.908 201.271 164.289 200.473Z" fill="#2094FF"/>
<path d="M163.171 207.594C162.35 207.594 161.786 206.939 161.786 205.806V204.809C161.786 203.212 162.908 201.271 164.289 200.473L194.506 183.028C194.908 182.795 195.288 182.685 195.625 182.685C196.446 182.685 197.009 183.34 197.009 184.473V185.47C197.009 187.067 195.889 189.008 194.506 189.806L164.289 207.251C163.888 207.484 163.507 207.594 163.171 207.594Z" fill="#2094FF"/>
<path d="M163.038 221.532L254.463 168.748C255.155 168.349 255.714 168.672 255.714 169.47V180.137C255.714 180.935 255.155 181.906 254.463 182.305L163.038 235.089C162.347 235.488 161.786 235.166 161.786 234.368V223.699C161.786 222.902 162.347 221.932 163.038 221.532" fill="#2094FF"/>
<path d="M162.478 235.261C162.068 235.261 161.786 234.933 161.786 234.368V223.699C161.786 222.902 162.347 221.932 163.038 221.532L254.463 168.747C254.664 168.632 254.855 168.577 255.022 168.577C255.434 168.577 255.714 168.904 255.714 169.47V180.137C255.714 180.935 255.155 181.906 254.463 182.305L253.808 182.684C252.096 180.494 250.843 179.046 249.708 179.046C249.393 179.046 249.087 179.159 248.782 179.397C247.708 180.241 248.488 182.07 250.244 184.742L163.038 235.089C162.837 235.206 162.647 235.261 162.478 235.261" fill="#D0E9FF"/>
<path d="M164.289 247.924L194.506 230.479C195.889 229.68 197.009 230.327 197.009 231.924V232.921C197.009 234.517 195.889 236.459 194.506 237.257L164.289 254.702C162.908 255.502 161.786 254.854 161.786 253.257V252.26C161.786 250.663 162.908 248.724 164.289 247.924Z" fill="#2094FF"/>
<path d="M163.171 255.045C162.35 255.045 161.786 254.39 161.786 253.257V252.26C161.786 250.663 162.908 248.724 164.289 247.924L194.506 230.479C194.908 230.246 195.288 230.137 195.625 230.137C196.446 230.137 197.009 230.791 197.009 231.924V232.921C197.009 234.517 195.889 236.459 194.506 237.257L164.289 254.703C163.888 254.935 163.507 255.045 163.171 255.045Z" fill="#2094FF"/>
<path d="M163.038 268.983L254.463 216.199C255.155 215.8 255.714 216.122 255.714 216.921V227.588C255.714 228.386 255.155 229.357 254.463 229.756L163.038 282.54C162.347 282.939 161.786 282.617 161.786 281.818V271.151C161.786 270.353 162.347 269.382 163.038 268.983" fill="#2094FF"/>
<path d="M162.478 282.711C162.068 282.711 161.786 282.384 161.786 281.818V271.151C161.786 270.353 162.347 269.382 163.038 268.983L254.463 216.199C254.664 216.083 254.855 216.028 255.022 216.028C255.433 216.028 255.714 216.355 255.714 216.921V227.588C255.714 228.386 255.155 229.357 254.463 229.756L163.038 282.54C162.837 282.656 162.647 282.711 162.478 282.711" fill="#D0E9FF"/>
<path d="M199.514 275.04L235.601 254.205C236.984 253.406 238.104 254.054 238.104 255.65V266.815C238.104 268.412 236.984 270.353 235.601 271.151L199.514 291.986C198.131 292.784 197.009 292.138 197.009 290.541V279.375C197.009 277.778 198.131 275.837 199.514 275.04" fill="#2094FF"/>
<path d="M198.395 292.328C197.574 292.328 197.009 291.674 197.009 290.541V279.375C197.009 277.779 198.131 275.838 199.514 275.04L235.601 254.205C236.003 253.973 236.382 253.863 236.718 253.863C237.541 253.863 238.104 254.518 238.104 255.651V266.815C238.104 268.412 236.984 270.353 235.601 271.151L199.514 291.987C199.112 292.218 198.732 292.328 198.395 292.328" fill="#2094FF"/>
<path d="M285.068 227.954C285.068 227.954 267.314 203.463 266.231 200.548C265.413 198.352 266.288 195.084 266.49 193.565C266.692 192.047 266.986 188.666 267.239 187.725C267.681 186.083 265.552 186.42 264.358 187.913C263.135 189.442 262.744 192.426 262.135 192.917C261.528 193.409 256.784 186.517 254.308 183.327C251.834 180.137 250.286 178.215 248.781 179.397C247.698 180.25 248.504 182.107 250.298 184.824C252.092 187.54 252.887 188.799 253.158 189.381C253.428 189.965 251.952 190.011 251.156 191.237C250.535 192.193 251.114 193.743 250.292 194.48C249.467 195.22 248.699 196.548 249.602 198.044C250.753 199.951 253.061 202.676 255.714 204.515C258.369 206.355 259.446 207.001 261.011 209.503C262.578 212.005 276.724 237.546 277.673 239.078C278.621 240.61 280.465 243.733 283.256 243.821C286.048 243.911 308.877 224.253 310.053 223.273C313.817 220.135 315.003 219.674 315.652 222.501C315.856 223.386 315.989 224.395 316.131 225.533C316.583 229.112 319.02 241.919 319.02 241.919C319.02 241.919 330.567 247.515 340.075 244.756C349.583 241.999 352.772 238.027 352.772 238.027L348.015 230.275C349.31 227.075 355.291 214.135 357.168 205.066L327.396 200.259C326.785 200.126 325.809 199.882 324.564 199.554C322.929 199.123 318.82 197.68 315.651 200.436C305.406 209.347 285.068 227.954 285.068 227.954" fill="#FFD0AD"/>
<path d="M344.093 378.168L338.756 385.585C338.756 385.585 341.227 387.035 346.508 387.234C351.283 387.416 352.597 385.848 352.773 385.473C353.578 383.742 352.321 380.622 351.975 377.942L344.093 378.168Z" fill="#263D46"/>
<path d="M339.057 382.025C339.057 382.025 332.589 381.612 328.116 381.049C323.643 380.485 320.105 382.667 321.159 384.51C322.21 386.35 324.669 387.882 328.502 389.169C331.786 390.275 335.721 391.079 339.149 392.105C342.662 393.156 344.911 394.359 346.901 393.674C349.12 392.909 350.074 392.024 349.884 390.408C349.696 388.792 348.088 383.589 348.088 383.589L339.057 382.025" fill="#263D46"/>
<path d="M352.773 370.717C352.773 370.717 351.964 377.453 351.902 378.9C351.839 380.345 345.327 380.809 344.093 378.168L343.891 369.932L352.773 370.717" fill="#FFCCAA"/>
<path d="M346.206 374.862L348.536 385.081C348.536 385.081 348.755 386.328 343.431 387.12C338.107 387.915 329.761 384.337 328.339 383.61C326.918 382.881 326.749 381.435 331.976 381.724C337.204 382.014 339.056 382.025 339.056 382.025L337.36 377.493L346.206 374.862" fill="#FFCDAC"/>
<path d="M357.168 205.066L360.848 204.05C360.848 204.05 368.558 228.427 369.409 230.774C370.262 233.122 371.223 235.625 369.565 238.53C367.59 241.987 357.168 255.906 357.168 255.906L350.553 249.433L358.057 235.683L351.419 222.234L357.168 205.066" fill="#FFC8A0"/>
<path d="M319.277 173.381C319.277 173.381 316.326 168.658 319.433 162.874C323.097 156.06 331.285 152.736 341.03 154.01C345.532 154.6 350.846 158.296 353.76 163.939C356.963 170.136 357.262 182.627 358.057 187.35L319.277 173.381Z" fill="#263D46"/>
<path d="M319.056 176.047C319.056 176.047 316.741 180.457 317.141 180.857C317.543 181.257 319.087 181.583 319.087 181.583L319.056 176.047Z" fill="#FFCDAC"/>
<path d="M326.081 162.111C323.563 163.753 319.229 166.755 319.038 176.66C318.843 186.829 320.28 190.107 321.783 191.284C322.797 192.079 328.733 191.678 331.282 191.078C333.83 190.479 341.16 186.859 343.798 181.354C346.899 174.877 346.272 165.393 341.655 162.641C335.158 158.765 328.213 160.722 326.081 162.111" fill="#FFD0AD"/>
<path d="M352.772 238.027C357.229 244.963 361.465 251.072 362.368 258.866C364.277 275.327 358.015 294.146 356.687 306.317C356.687 306.317 360.892 311.785 360.888 318.21C360.885 323.24 352.773 370.717 352.773 370.717C352.773 370.717 346.872 372.515 343.891 369.932L338.315 282.591L341.252 271.958L352.772 238.027" fill="#2094FF"/>
<path d="M348.515 371.325C347.53 371.325 346.496 371.21 345.557 370.877C344.96 367.244 344.014 361.519 342.96 355.36L338.315 282.594L340.643 319.066L341.031 287.787L345.525 274.118C354.155 271.117 357.168 265.646 357.168 265.646C349.394 269.99 341.252 271.959 341.252 271.959C354.006 268.166 358.175 262.719 359.645 254.97C359.758 254.37 359.811 253.769 359.811 253.166C359.813 250.916 359.083 248.669 358.063 246.554C360.21 250.419 361.846 254.361 362.368 258.866C362.618 261.021 362.728 263.215 362.728 265.429C362.722 280.139 357.84 295.738 356.687 306.317C356.687 306.317 360.892 311.785 360.888 318.21C360.885 323.24 352.773 370.717 352.773 370.717C352.773 370.717 350.774 371.325 348.515 371.325M353.552 239.239C353.266 238.811 353.003 238.406 352.772 238.027C353.032 238.434 353.293 238.837 353.552 239.239Z" fill="#2094FF"/>
<path d="M338.315 282.591L341.252 271.958C341.252 271.958 349.394 269.99 357.168 265.646C357.168 265.646 354.155 271.117 345.525 274.118L341.031 287.787L340.643 319.066L338.315 282.591" fill="#2094FF"/>
<path d="M340.643 319.066L338.315 282.594L341.252 271.958C341.252 271.958 349.394 269.99 357.168 265.646C357.168 265.646 354.155 271.117 345.525 274.118L341.031 287.787L340.643 319.066" fill="#005AAC"/>
<path d="M352.772 238.027C355.156 241.919 360.855 248.575 359.645 254.97C358.176 262.719 354.006 268.166 341.252 271.958L329.29 315.279C329.29 315.279 335.519 321.109 337.424 326.653C339.325 332.197 346.206 374.861 346.206 374.861C346.206 374.861 344.079 378.335 337.36 377.493C337.36 377.493 313.933 323.985 312.277 320.54C310.623 317.094 309.549 314.519 310.294 308.907C311.039 303.297 319.02 241.919 319.02 241.919L352.772 238.027" fill="#2094FF"/>
<path d="M339.379 377.625C338.757 377.625 338.085 377.584 337.36 377.493C337.36 377.493 313.933 323.985 312.276 320.54C310.987 317.855 310.052 315.698 310.054 312.221C310.054 311.237 310.13 310.146 310.294 308.907C311.039 303.297 319.02 241.919 319.02 241.919C319.02 241.919 326.454 245.521 334.302 245.521C336.237 245.521 338.195 245.303 340.075 244.756C349.584 241.999 352.772 238.027 352.772 238.027C354.932 241.554 359.816 247.35 359.811 253.166C359.811 253.769 359.758 254.37 359.645 254.97C358.175 262.719 354.006 268.166 341.252 271.958L338.315 282.594L329.29 315.279C329.29 315.279 335.519 321.109 337.423 326.653C339.325 332.197 346.206 374.861 346.206 374.861C346.206 374.861 344.514 377.625 339.379 377.625" fill="#2094FF"/>
<path d="M357.168 205.066L327.396 200.259C326.786 200.126 325.804 199.879 324.559 199.553L324.556 199.551C324.556 199.551 323.287 218.218 315.652 222.501H315.651C315.832 223.392 315.989 224.393 316.131 225.533C316.583 229.112 319.02 241.919 319.02 241.919C319.02 241.919 330.567 247.515 340.075 244.756C349.583 241.999 352.772 238.027 352.772 238.027L348.015 230.275C349.31 227.075 355.291 214.135 357.168 205.066" fill="#2094FF"/>
<path d="M351.419 222.234C353.567 217.004 356.07 210.371 357.169 205.066C356.07 210.371 353.567 217.004 351.419 222.234Z" fill="#FBCAD2"/>
<path d="M334.302 245.521C326.454 245.521 319.02 241.919 319.02 241.919C319.02 241.919 316.583 229.112 316.131 225.533C315.989 224.393 315.832 223.392 315.651 222.501H315.652C323.287 218.218 324.556 199.551 324.556 199.551L324.559 199.552C325.804 199.879 326.786 200.126 327.396 200.259L357.168 205.066C356.07 210.371 353.566 217.004 351.419 222.234C349.897 225.944 348.553 228.947 348.015 230.275L352.772 238.027C352.772 238.027 349.583 241.999 340.075 244.756C338.195 245.303 336.237 245.521 334.302 245.521" fill="#7AB8E7"/>
<path d="M349.314 227.227C349.192 227.508 339.743 232.57 336.937 233.345C341.362 233.127 345.04 232.086 348.016 230.275L349.314 227.227Z" fill="#2094FF"/>
<path d="M325.339 162.611C325.339 162.611 323.951 172.009 327.313 177.521C327.313 177.521 328.574 173.78 331.753 174.495C334.952 175.215 335.085 179.37 332.864 181.726C330.641 184.081 328.168 183.23 328.168 183.23C328.168 183.23 327.67 190.023 327.401 195.717C327.142 201.206 325.612 213.824 332.02 218.897C338.43 223.971 354.492 225.684 362.02 215.16C366.21 209.305 360.644 198.956 358.057 187.35C355.677 176.68 354.339 160.868 343.017 158.332C331.696 155.795 325.339 162.611 325.339 162.611" fill="#263D46"/>
<path d="M366.87 34.2515L364.482 35.6303C364.673 34.7516 364.809 33.8801 364.809 33.0404C364.809 28.2047 361.414 26.2464 357.227 28.6643C356.009 29.3666 354.876 30.3826 353.855 31.5605L353.857 31.5258C353.857 25.0165 349.289 22.3775 343.651 25.6322C338.014 28.8868 333.444 36.8009 333.444 43.3102C333.444 43.6426 333.463 43.9562 333.488 44.267C332.296 44.0545 330.872 44.3479 329.341 45.2309C325.153 47.6488 321.76 53.5265 321.76 58.3623C321.76 59.0285 321.831 59.6326 321.952 60.1861L320.68 60.9189C317.223 62.9147 314.422 66.8082 314.422 69.6163C314.422 72.4243 317.223 73.0819 320.68 71.0875L366.87 44.4202C370.325 42.4243 373.128 38.5308 373.128 35.7227C373.128 32.9147 370.325 32.2556 366.87 34.2515" fill="#E7E7E5"/>
</svg>
